<svg width="931" height="313" viewBox="0 0 931 313" fill="none" xmlns="http://www.w3.org/2000/svg">
<rect width="931" height="313" fill="white"/>
<path d="M494.543 99.868L560.111 99.9507L559.75 103.016L492.755 103.008L494.543 99.868Z" fill="#253780"/>
<rect x="272.525" y="49.6259" width="369.097" height="50.3313" fill="#253780"/>
<path d="M619.244 110.634L745.335 73.2436L619.244 42L571.984 59.8435L530.283 59.042V87.4452L571.984 86.6088L619.244 110.634Z" fill="#253780"/>
<path d="M563.009 93L602.88 93.0185L609 100H563L563.009 93Z" fill="#DEAC31"/>
<path d="M481.491 210.891C455.605 139.188 492.774 103.008 492.774 103.008H567.777C567.777 103.008 523.97 118.138 531.271 171.421C538.572 224.705 611.584 210.891 611.584 210.891L623.32 261.909C623.32 261.909 507.376 282.594 481.491 210.891Z" fill="#253780"/>
<path d="M373.337 98.4321H438.098L440.296 264.678H371.663L373.337 98.4321Z" fill="#253780"/>
<path d="M272.336 99.9572H338.487L339.155 265H271L272.336 99.9572Z" fill="#253780"/>
<path d="M272.5 49.5H599L599.5 56L272.5 57V49.5Z" fill="#DEAC31"/>
<path d="M271.014 258H339.131L339.165 265H271L271.014 258Z" fill="#DEAC31"/>
<path d="M372.014 258H440.436L440.5 265H372L372.014 258Z" fill="#DEAC31"/>
<path d="M331.01 93H379.975L380 100H331L331.01 93Z" fill="#DEAC31"/>
<path d="M491.2 99.1643L497.978 99L498.01 103.516L491 102.984L491.2 99.1643Z" fill="#DEAC31"/>
<path d="M279 56L277.222 265H271L272.5 56H279Z" fill="#DEAC31"/>
<path d="M338.5 100L339.5 265H331V94L338.5 100Z" fill="#DEAC31"/>
<path d="M380 93L379.5 265H371.5L373 93H380Z" fill="#DEAC31"/>
<path d="M440.5 93L440 265H432L433.5 93H440.5Z" fill="#DEAC31"/>
<path d="M619.204 110.667L598.328 99.9996L602.5 93L622.069 103.627L619.204 110.667Z" fill="#DEAC31"/>
<path d="M436.013 93L497.996 93.0039L497.979 100.01L436 100L436.013 93Z" fill="#DEAC31"/>
<path d="M617.025 103.997L732.323 70.0025L745.337 73.2524L619.211 110.652L617.025 103.997Z" fill="#DEAC31"/>
<path d="M597.486 49.8597L619.189 41.997L622.5 47.5L599.5 56L597.486 49.8597Z" fill="#DEAC31"/>
<path d="M560.744 92.9803L566.881 93.0376L568 102.94H558L560.744 92.9803Z" fill="#DEAC31"/>
<path d="M495.59 100.989C495.59 100.989 449.5 145 481.5 213.5C513.5 282 623 259.5 623 259.5" stroke="#DEAC31" stroke-width="7"/>
<path d="M566.181 99.9304C566.181 99.9304 514 130 532.5 178.5C551 227 612.5 214 612.5 214" stroke="#DEAC31" stroke-width="7"/>
<path d="M733.974 70.4033L745.335 73.2436L733.264 76.794L733.974 70.4033Z" fill="#DEAC31"/>
<path d="M620 262L608.583 211.76" stroke="#DEAC31" stroke-width="7"/>
<path d="M732 77L615.5 47.5L619.224 41.9683L734.014 70.4123L732 77Z" fill="#DEAC31"/>
</svg>
