<svg width="925" height="315" viewBox="0 0 925 315" fill="none" xmlns="http://www.w3.org/2000/svg">
<rect width="925" height="315" fill="white"/>
<path d="M189.99 165.197C168.962 106.95 199.156 77.5589 199.156 77.5589H260.083C260.083 77.5589 224.497 89.8496 230.428 133.134C236.359 176.419 295.669 165.197 295.669 165.197L305.203 206.641C305.203 206.641 211.018 223.444 189.99 165.197Z" fill="#253780"/>
<path d="M102.133 73.842H154.74L156.526 208.89H100.772L102.133 73.842Z" fill="#253780"/>
<path d="M20.0856 75.0809H73.8224L74.3652 209.151H19L20.0856 75.0809Z" fill="#253780"/>
<path d="M335.674 55.0888L325.904 75.1722V55.1955V36.0909L335.674 55.0888Z" fill="#C89B2B"/>
<rect x="20.239" y="34.1949" width="299.832" height="40.8861" fill="#253780"/>
<path d="M301.892 83.7538L404.321 53.3804L301.892 28L263.501 42.495L229.626 41.8438V64.9169L263.501 64.2374L301.892 83.7538Z" fill="#253780"/>
<path d="M20.2422 51.0731H395.092L394.515 56.2646L20.2422 56.8414L20.2422 51.0731Z" fill="#DEAC31"/>
<path d="M200.385 75.0006H259.537L260.114 77.6071H199.274L200.385 75.0006Z" fill="#253780"/>
<path d="M395.092 51.0731L404.321 53.3804L394.515 56.2646L395.092 51.0731Z" fill="#DEAC31"/>
<path d="M501.671 49.3265H518.401C518.401 49.3265 508.147 59.5801 508.147 76.8494C508.147 96.2773 516.242 93.579 516.242 93.579L518.401 107.071C518.401 107.071 493.577 111.928 493.576 76.8494C493.576 63.3578 501.671 49.3265 501.671 49.3265Z" fill="#253780"/>
<path d="M435 33.0383H457.321H496.063H518.384V49.3264H501.671V47.7074H482.299V107.137H466.593L467.672 47.7074H452.551V107.61H435V33.0383Z" fill="#253780"/>
<path d="M876.889 56.3765C876.646 53.7063 875.566 51.6308 873.649 50.1501C871.755 48.6451 869.048 47.8925 865.529 47.8925C863.198 47.8925 861.256 48.196 859.703 48.8028C858.149 49.4097 856.984 50.2472 856.207 51.3153C855.43 52.3591 855.03 53.5607 855.006 54.9201C854.957 56.0367 855.175 57.0198 855.661 57.8694C856.171 58.7191 856.899 59.4716 857.846 60.127C858.817 60.7581 859.982 61.3165 861.341 61.8019C862.701 62.2874 864.23 62.7122 865.929 63.0764L872.338 64.5329C876.027 65.3339 879.28 66.402 882.096 67.7371C884.936 69.0722 887.315 70.6622 889.233 72.5071C891.175 74.352 892.643 76.476 893.639 78.8792C894.634 81.2824 895.144 83.9769 895.168 86.9627C895.144 91.672 893.954 95.7137 891.6 99.0879C889.245 102.462 885.859 105.047 881.441 106.844C877.047 108.64 871.743 109.538 865.529 109.538C859.29 109.538 853.852 108.604 849.216 106.734C844.58 104.865 840.975 102.025 838.402 98.214C835.829 94.4029 834.506 89.5844 834.433 83.7584H851.692C851.838 86.1616 852.481 88.1643 853.622 89.7664C854.763 91.3685 856.329 92.5823 858.319 93.4076C860.334 94.233 862.664 94.6456 865.31 94.6456C867.738 94.6456 869.801 94.3179 871.5 93.6625C873.224 93.0071 874.547 92.0968 875.469 90.9316C876.392 89.7664 876.865 88.4313 876.889 86.9263C876.865 85.5183 876.428 84.3167 875.578 83.3215C874.729 82.3019 873.418 81.4281 871.646 80.6998C869.898 79.9473 867.665 79.2555 864.946 78.6243L857.154 76.8037C850.697 75.323 845.611 72.9319 841.897 69.6305C838.183 66.3049 836.338 61.8141 836.363 56.1581C836.338 51.5459 837.576 47.5041 840.077 44.0329C842.577 40.5616 846.036 37.8549 850.454 35.913C854.872 33.971 859.909 33 865.565 33C871.342 33 876.355 33.9831 880.603 35.9494C884.876 37.8914 888.189 40.6223 890.544 44.1421C892.898 47.6619 894.1 51.7401 894.149 56.3765H876.889Z" fill="#253780"/>
<path d="M775.909 108.591H756.538L781.699 34.0195H805.695L830.855 108.591H811.484L793.97 52.8082H793.387L775.909 108.591ZM773.324 79.2433H813.814V92.9343H773.324V79.2433Z" fill="#253780"/>
<path d="M748.464 34.0195V108.591H730.44V34.0195H748.464Z" fill="#253780"/>
<path d="M662.55 108.591V34.0195H693.354C698.937 34.0195 703.756 35.0269 707.81 37.0417C711.888 39.0323 715.031 41.8967 717.24 45.635C719.449 49.349 720.554 53.7549 720.554 58.8526C720.554 64.0231 719.425 68.4168 717.168 72.0337C714.91 75.6264 711.706 78.3694 707.555 80.2629C703.404 82.132 698.488 83.0666 692.808 83.0666H673.328V68.8659H689.458C692.177 68.8659 694.447 68.5139 696.267 67.8099C698.112 67.0817 699.508 65.9893 700.455 64.5328C701.401 63.0521 701.875 61.1587 701.875 58.8526C701.875 56.5465 701.401 54.6409 700.455 53.1359C699.508 51.6066 698.112 50.4656 696.267 49.7131C694.422 48.9363 692.153 48.548 689.458 48.548H680.574V108.591H662.55ZM704.533 74.5098L723.103 108.591H703.44L685.234 74.5098H704.533Z" fill="#253780"/>
<path d="M590.718 48.6572V34.0195H653.747V48.6572H631.135V108.591H613.366V48.6572H590.718Z" fill="#253780"/>
<path d="M529.873 108.591V34.0195H581.87V48.6572H547.897V63.9503H579.211V78.6243H547.897V93.9538H581.87V108.591H529.873Z" fill="#253780"/>
<path d="M502.152 149H519C519 149 508.674 159.258 508.674 176.536C508.674 195.973 516.826 193.273 516.826 193.273L519 206.771C519 206.771 494 211.631 494 176.536C494 163.038 502.152 149 502.152 149Z" fill="#253780"/>
<path d="M435 133H457.486H496.514H519V149.382H502.164V147.753H482.649V207.524H466.827L467.914 147.753H452.68V208H435V133Z" fill="#253780"/>
<path d="M854.147 207.048V132.23H872.23V192.362H903.355V207.048H854.147Z" fill="#253780"/>
<path d="M790.965 207.048H771.53L796.774 132.23H820.848L846.092 207.048H826.657L809.085 151.081H808.501L790.965 207.048ZM788.371 177.603H828.995V191.339H788.371V177.603Z" fill="#253780"/>
<path d="M766.343 159.337H748.077C747.833 157.461 747.334 155.769 746.579 154.259C745.824 152.749 744.825 151.458 743.583 150.386C742.341 149.315 740.868 148.499 739.163 147.939C737.482 147.354 735.619 147.062 733.574 147.062C729.945 147.062 726.815 147.951 724.185 149.729C721.579 151.507 719.57 154.076 718.157 157.437C716.769 160.798 716.075 164.865 716.075 169.639C716.075 174.607 716.781 178.772 718.194 182.133C719.631 185.469 721.64 187.99 724.221 189.695C726.827 191.375 729.908 192.216 733.464 192.216C735.461 192.216 737.275 191.96 738.907 191.448C740.563 190.937 742.012 190.194 743.254 189.22C744.521 188.221 745.556 187.016 746.36 185.603C747.188 184.166 747.76 182.547 748.077 180.744L766.343 180.854C766.026 184.166 765.064 187.43 763.457 190.645C761.874 193.859 759.694 196.794 756.917 199.449C754.141 202.079 750.756 204.174 746.762 205.732C742.792 207.291 738.237 208.07 733.099 208.07C726.328 208.07 720.264 206.585 714.906 203.613C709.572 200.618 705.359 196.258 702.266 190.535C699.173 184.812 697.626 177.846 697.626 169.639C697.626 161.407 699.197 154.429 702.339 148.706C705.48 142.983 709.73 138.635 715.088 135.664C720.446 132.693 726.45 131.207 733.099 131.207C737.629 131.207 741.818 131.84 745.666 133.107C749.514 134.349 752.899 136.176 755.821 138.587C758.744 140.973 761.119 143.908 762.945 147.391C764.772 150.874 765.904 154.856 766.343 159.337Z" fill="#253780"/>
<path d="M687.078 132.23V207.048H668.994V132.23H687.078Z" fill="#253780"/>
<path d="M621.503 207.048H593.848V132.23H621.466C629.089 132.23 635.653 133.728 641.157 136.724C646.685 139.695 650.947 143.981 653.943 149.583C656.939 155.16 658.436 161.833 658.436 169.602C658.436 177.396 656.939 184.093 653.943 189.695C650.972 195.296 646.722 199.595 641.193 202.591C635.665 205.562 629.101 207.048 621.503 207.048ZM611.931 191.631H620.809C624.998 191.631 628.541 190.925 631.439 189.512C634.362 188.075 636.566 185.749 638.052 182.535C639.562 179.295 640.317 174.985 640.317 169.602C640.317 164.22 639.562 159.934 638.052 156.743C636.542 153.528 634.313 151.215 631.366 149.802C628.444 148.365 624.839 147.647 620.553 147.647H611.931V191.631Z" fill="#253780"/>
<path d="M530.356 207.048V132.23H582.523V146.916H548.439V162.259H579.856V176.982H548.439V192.362H582.523V207.048H530.356Z" fill="#253780"/>
<path d="M886.373 280.916C882.981 280.916 880.046 280.128 877.568 278.55C875.091 276.956 873.174 274.755 871.817 271.946C870.476 269.122 869.805 265.871 869.805 262.195C869.805 258.534 870.476 255.284 871.817 252.443C873.174 249.587 875.044 247.355 877.427 245.745C879.825 244.12 882.594 243.307 885.734 243.307C887.706 243.307 889.608 243.67 891.438 244.396C893.269 245.106 894.909 246.203 896.361 247.686C897.829 249.154 898.988 251.008 899.84 253.248C900.692 255.473 901.119 258.108 901.119 261.153V263.236H872.717V259.52H896.811C896.811 257.185 896.338 255.086 895.391 253.225C894.46 251.347 893.158 249.864 891.486 248.775C889.829 247.686 887.912 247.142 885.734 247.142C883.43 247.142 881.403 247.757 879.651 248.988C877.9 250.219 876.527 251.844 875.533 253.864C874.555 255.883 874.058 258.092 874.042 260.491V262.716C874.042 265.603 874.539 268.128 875.533 270.289C876.543 272.435 877.971 274.1 879.817 275.283C881.663 276.467 883.848 277.059 886.373 277.059C888.093 277.059 889.6 276.79 890.894 276.254C892.203 275.717 893.3 274.999 894.184 274.1C895.083 273.185 895.762 272.183 896.219 271.094L900.219 272.396C899.667 273.926 898.759 275.339 897.497 276.632C896.251 277.926 894.689 278.968 892.811 279.757C890.949 280.53 888.803 280.916 886.373 280.916Z" fill="#253780"/>
<path d="M848.776 280.916C845.526 280.916 842.693 280.104 840.279 278.479C837.881 276.853 836.019 274.629 834.693 271.804C833.368 268.98 832.705 265.761 832.705 262.147C832.705 258.503 833.376 255.26 834.717 252.42C836.074 249.58 837.952 247.355 840.35 245.745C842.749 244.12 845.534 243.307 848.705 243.307C851.135 243.307 853.336 243.781 855.309 244.728C857.281 245.659 858.906 246.976 860.184 248.68C861.478 250.369 862.291 252.341 862.622 254.597H858.362C857.92 252.546 856.855 250.795 855.167 249.343C853.494 247.875 851.364 247.142 848.776 247.142C846.457 247.142 844.405 247.773 842.622 249.035C840.839 250.282 839.443 252.025 838.433 254.266C837.439 256.491 836.942 259.071 836.942 262.005C836.942 264.956 837.431 267.568 838.409 269.84C839.388 272.096 840.76 273.863 842.528 275.141C844.311 276.419 846.393 277.059 848.776 277.059C850.386 277.059 851.853 276.759 853.178 276.159C854.52 275.544 855.64 274.676 856.539 273.556C857.454 272.435 858.07 271.102 858.385 269.556H862.646C862.33 271.749 861.549 273.706 860.303 275.425C859.072 277.13 857.47 278.471 855.498 279.449C853.541 280.427 851.301 280.916 848.776 280.916Z" fill="#253780"/>
<path d="M819.196 280.159V243.805H823.433V280.159H819.196ZM821.35 237.556C820.482 237.556 819.741 237.264 819.126 236.68C818.51 236.081 818.202 235.363 818.202 234.527C818.202 233.69 818.51 232.98 819.126 232.396C819.741 231.797 820.482 231.497 821.35 231.497C822.218 231.497 822.96 231.797 823.575 232.396C824.191 232.98 824.498 233.69 824.498 234.527C824.498 235.363 824.191 236.081 823.575 236.68C822.96 237.264 822.218 237.556 821.35 237.556Z" fill="#253780"/>
<path d="M810.907 243.805L797.629 280.159H793.132L779.854 243.805H784.422L795.215 274.597H795.546L806.339 243.805H810.907Z" fill="#253780"/>
<path d="M757.901 280.159V243.805H761.996V249.39H762.304C763.03 247.56 764.292 246.085 766.091 244.964C767.905 243.828 769.957 243.26 772.245 243.26C772.592 243.26 772.978 243.268 773.404 243.284C773.83 243.3 774.185 243.315 774.469 243.331V247.615C774.28 247.584 773.949 247.536 773.475 247.473C773.002 247.41 772.489 247.378 771.937 247.378C770.043 247.378 768.355 247.781 766.872 248.586C765.404 249.375 764.245 250.471 763.393 251.875C762.54 253.28 762.114 254.881 762.114 256.68V280.159H757.901Z" fill="#253780"/>
<path d="M733.872 280.916C730.48 280.916 727.545 280.128 725.068 278.55C722.59 276.956 720.673 274.755 719.316 271.946C717.975 269.122 717.304 265.871 717.304 262.195C717.304 258.534 717.975 255.284 719.316 252.443C720.673 249.587 722.543 247.355 724.926 245.745C727.324 244.12 730.093 243.307 733.233 243.307C735.206 243.307 737.107 243.67 738.937 244.396C740.768 245.106 742.409 246.203 743.86 247.686C745.328 249.154 746.487 251.008 747.339 253.248C748.192 255.473 748.618 258.108 748.618 261.153V263.236H720.216V259.52H744.31C744.31 257.185 743.837 255.086 742.89 253.225C741.959 251.347 740.657 249.864 738.985 248.775C737.328 247.686 735.411 247.142 733.233 247.142C730.93 247.142 728.902 247.757 727.15 248.988C725.399 250.219 724.026 251.844 723.032 253.864C722.054 255.883 721.557 258.092 721.541 260.491V262.716C721.541 265.603 722.038 268.128 723.032 270.289C724.042 272.435 725.47 274.1 727.316 275.283C729.162 276.467 731.348 277.059 733.872 277.059C735.592 277.059 737.099 276.79 738.393 276.254C739.703 275.717 740.799 274.999 741.683 274.1C742.582 273.185 743.261 272.183 743.718 271.094L747.718 272.396C747.166 273.926 746.259 275.339 744.996 276.632C743.75 277.926 742.188 278.968 740.31 279.757C738.448 280.53 736.302 280.916 733.872 280.916Z" fill="#253780"/>
<path d="M704.452 243.805C704.184 241.106 702.993 238.96 700.879 237.367C698.764 235.773 696.105 234.976 692.902 234.976C690.646 234.976 688.658 235.363 686.938 236.136C685.234 236.909 683.893 237.982 682.914 239.355C681.952 240.712 681.471 242.258 681.471 243.994C681.471 245.272 681.747 246.392 682.299 247.355C682.851 248.317 683.593 249.146 684.524 249.84C685.47 250.518 686.512 251.102 687.648 251.591C688.8 252.081 689.96 252.491 691.127 252.822L696.24 254.29C697.786 254.716 699.332 255.26 700.879 255.923C702.425 256.585 703.837 257.422 705.115 258.432C706.409 259.426 707.443 260.649 708.216 262.1C709.005 263.536 709.399 265.264 709.399 267.284C709.399 269.871 708.729 272.199 707.387 274.266C706.046 276.333 704.121 277.974 701.612 279.189C699.103 280.388 696.098 280.987 692.595 280.987C689.297 280.987 686.433 280.443 684.003 279.354C681.573 278.25 679.664 276.727 678.275 274.786C676.887 272.846 676.106 270.597 675.932 268.041H680.476C680.634 269.95 681.265 271.568 682.37 272.893C683.474 274.218 684.91 275.228 686.678 275.922C688.445 276.601 690.417 276.94 692.595 276.94C695.009 276.94 697.155 276.538 699.032 275.733C700.926 274.913 702.409 273.777 703.482 272.325C704.571 270.857 705.115 269.153 705.115 267.213C705.115 265.572 704.689 264.199 703.837 263.094C702.985 261.974 701.794 261.035 700.263 260.278C698.748 259.52 696.989 258.85 694.985 258.266L689.186 256.562C685.384 255.426 682.433 253.856 680.334 251.852C678.236 249.848 677.187 247.292 677.187 244.183C677.187 241.58 677.881 239.292 679.269 237.319C680.674 235.331 682.567 233.785 684.95 232.68C687.348 231.56 690.038 231 693.021 231C696.034 231 698.701 231.552 701.021 232.657C703.34 233.761 705.178 235.284 706.535 237.225C707.908 239.15 708.642 241.343 708.736 243.805H704.452Z" fill="#253780"/>
<path d="M624.128 257.438V280.159H619.915V243.805H624.01V249.509H624.388C625.241 247.647 626.566 246.156 628.365 245.035C630.179 243.899 632.42 243.331 635.087 243.331C637.532 243.331 639.678 243.844 641.524 244.87C643.386 245.88 644.83 247.371 645.856 249.343C646.897 251.315 647.418 253.737 647.418 256.609V280.159H643.205V256.87C643.205 253.887 642.369 251.528 640.696 249.793C639.039 248.057 636.814 247.189 634.021 247.189C632.112 247.189 630.416 247.599 628.933 248.42C627.45 249.24 626.274 250.424 625.406 251.97C624.554 253.501 624.128 255.323 624.128 257.438Z" fill="#253780"/>
<path d="M594.667 280.916C591.527 280.916 588.75 280.12 586.336 278.526C583.937 276.932 582.06 274.731 580.703 271.923C579.346 269.098 578.667 265.84 578.667 262.147C578.667 258.424 579.346 255.15 580.703 252.325C582.06 249.485 583.937 247.276 586.336 245.698C588.75 244.104 591.527 243.307 594.667 243.307C597.807 243.307 600.576 244.104 602.974 245.698C605.373 247.292 607.251 249.501 608.608 252.325C609.98 255.15 610.667 258.424 610.667 262.147C610.667 265.84 609.988 269.098 608.631 271.923C607.274 274.731 605.389 276.932 602.974 278.526C600.576 280.12 597.807 280.916 594.667 280.916ZM594.667 277.059C597.192 277.059 599.33 276.38 601.081 275.023C602.832 273.666 604.158 271.859 605.057 269.603C605.972 267.347 606.43 264.861 606.43 262.147C606.43 259.434 605.972 256.94 605.057 254.668C604.158 252.396 602.832 250.574 601.081 249.201C599.33 247.828 597.192 247.142 594.667 247.142C592.158 247.142 590.02 247.828 588.253 249.201C586.501 250.574 585.168 252.396 584.253 254.668C583.353 256.94 582.904 259.434 582.904 262.147C582.904 264.861 583.353 267.347 584.253 269.603C585.168 271.859 586.501 273.666 588.253 275.023C590.004 276.38 592.142 277.059 594.667 277.059Z" fill="#253780"/>
<path d="M565.159 280.159V243.805H569.395V280.159H565.159ZM567.312 237.556C566.445 237.556 565.703 237.264 565.088 236.68C564.472 236.081 564.165 235.363 564.165 234.527C564.165 233.69 564.472 232.98 565.088 232.396C565.703 231.797 566.445 231.497 567.312 231.497C568.18 231.497 568.922 231.797 569.537 232.396C570.153 232.98 570.46 233.69 570.46 234.527C570.46 235.363 570.153 236.081 569.537 236.68C568.922 237.264 568.18 237.556 567.312 237.556Z" fill="#253780"/>
<path d="M555.543 243.805V247.473H538.194V243.805H555.543ZM543.614 235.095H547.851V270.668C547.851 272.183 548.111 273.374 548.632 274.242C549.153 275.094 549.831 275.702 550.668 276.064C551.504 276.412 552.395 276.585 553.342 276.585C553.894 276.585 554.368 276.554 554.762 276.491C555.157 276.412 555.504 276.333 555.804 276.254L556.703 280.064C556.293 280.222 555.788 280.364 555.188 280.49C554.589 280.632 553.847 280.703 552.963 280.703C551.417 280.703 549.926 280.364 548.49 279.686C547.07 279.007 545.902 277.997 544.987 276.656C544.072 275.315 543.614 273.65 543.614 271.662V235.095Z" fill="#253780"/>
<path d="M525.857 266.266V243.805H530.07V280.159H525.857V274.124H525.526C524.674 275.986 523.325 277.54 521.479 278.786C519.632 280.017 517.376 280.633 514.709 280.633C512.39 280.633 510.331 280.128 508.532 279.118C506.733 278.092 505.321 276.593 504.295 274.621C503.27 272.648 502.757 270.226 502.757 267.355V243.805H506.97V267.094C506.97 269.934 507.806 272.222 509.479 273.958C511.151 275.678 513.297 276.538 515.917 276.538C517.558 276.538 519.135 276.143 520.65 275.355C522.165 274.566 523.412 273.414 524.39 271.899C525.368 270.368 525.857 268.491 525.857 266.266Z" fill="#253780"/>
<path d="M479.858 280.916C476.607 280.916 473.775 280.104 471.361 278.479C468.963 276.853 467.101 274.629 465.775 271.804C464.45 268.98 463.787 265.761 463.787 262.147C463.787 258.503 464.458 255.26 465.799 252.42C467.156 249.58 469.034 247.355 471.432 245.745C473.83 244.12 476.615 243.307 479.787 243.307C482.217 243.307 484.418 243.781 486.39 244.728C488.363 245.659 489.988 246.976 491.266 248.68C492.56 250.369 493.373 252.341 493.704 254.597H489.444C489.002 252.546 487.937 250.795 486.248 249.343C484.576 247.875 482.446 247.142 479.858 247.142C477.538 247.142 475.487 247.773 473.704 249.035C471.921 250.282 470.525 252.025 469.515 254.266C468.521 256.491 468.024 259.071 468.024 262.005C468.024 264.956 468.513 267.568 469.491 269.84C470.469 272.096 471.842 273.863 473.609 275.141C475.392 276.419 477.475 277.059 479.858 277.059C481.467 277.059 482.935 276.759 484.26 276.159C485.601 275.544 486.722 274.676 487.621 273.556C488.536 272.435 489.152 271.102 489.467 269.556H493.728C493.412 271.749 492.631 273.706 491.384 275.425C490.154 277.13 488.552 278.471 486.58 279.449C484.623 280.427 482.382 280.916 479.858 280.916Z" fill="#253780"/>
<path d="M441.628 280.916C438.235 280.916 435.3 280.128 432.823 278.55C430.346 276.956 428.429 274.755 427.072 271.946C425.73 269.122 425.06 265.871 425.06 262.195C425.06 258.534 425.73 255.284 427.072 252.443C428.429 249.587 430.298 247.355 432.681 245.745C435.079 244.12 437.849 243.307 440.989 243.307C442.961 243.307 444.862 243.67 446.693 244.396C448.523 245.106 450.164 246.203 451.616 247.686C453.083 249.154 454.243 251.008 455.095 253.248C455.947 255.473 456.373 258.108 456.373 261.153V263.236H427.971V259.52H452.065C452.065 257.185 451.592 255.086 450.645 253.225C449.714 251.347 448.412 249.864 446.74 248.775C445.083 247.686 443.166 247.142 440.989 247.142C438.685 247.142 436.657 247.757 434.906 248.988C433.154 250.219 431.782 251.844 430.787 253.864C429.809 255.883 429.312 258.092 429.296 260.491V262.716C429.296 265.603 429.793 268.128 430.787 270.289C431.797 272.435 433.225 274.1 435.071 275.283C436.918 276.467 439.103 277.059 441.628 277.059C443.347 277.059 444.854 276.79 446.148 276.254C447.458 275.717 448.554 274.999 449.438 274.1C450.337 273.185 451.016 272.183 451.474 271.094L455.474 272.396C454.921 273.926 454.014 275.339 452.752 276.632C451.505 277.926 449.943 278.968 448.065 279.757C446.203 280.53 444.057 280.916 441.628 280.916Z" fill="#253780"/>
<path d="M395.948 243.805L405.32 259.307L414.693 243.805H419.592L407.9 261.982L419.592 280.159H414.693L405.32 265.153L395.948 280.159H391.072L402.622 261.982L391.072 243.805H395.948Z" fill="#253780"/>
<path d="M354.646 280.159V231.686H382.764V235.663H359.072V253.911H381.273V257.887H359.072V276.183H383.238V280.159H354.646Z" fill="#253780"/>
<path d="M310.996 280.916C307.604 280.916 304.669 280.128 302.192 278.55C299.714 276.956 297.797 274.755 296.44 271.946C295.099 269.122 294.428 265.871 294.428 262.195C294.428 258.534 295.099 255.284 296.44 252.443C297.797 249.587 299.667 247.355 302.05 245.745C304.448 244.12 307.217 243.307 310.357 243.307C312.33 243.307 314.231 243.67 316.061 244.396C317.892 245.106 319.533 246.203 320.984 247.686C322.452 249.154 323.611 251.008 324.463 253.248C325.316 255.473 325.742 258.108 325.742 261.153V263.236H297.34V259.52H321.434C321.434 257.185 320.961 255.086 320.014 253.225C319.083 251.347 317.781 249.864 316.109 248.775C314.452 247.686 312.535 247.142 310.357 247.142C308.053 247.142 306.026 247.757 304.274 248.988C302.523 250.219 301.15 251.844 300.156 253.864C299.178 255.883 298.681 258.092 298.665 260.491V262.716C298.665 265.603 299.162 268.128 300.156 270.289C301.166 272.435 302.594 274.1 304.44 275.283C306.286 276.467 308.472 277.059 310.996 277.059C312.716 277.059 314.223 276.79 315.517 276.254C316.826 275.717 317.923 274.999 318.807 274.1C319.706 273.185 320.385 272.183 320.842 271.094L324.842 272.396C324.29 273.926 323.383 275.339 322.12 276.632C320.874 277.926 319.312 278.968 317.434 279.757C315.572 280.53 313.426 280.916 310.996 280.916Z" fill="#253780"/>
<path d="M270.139 294.549C267.662 294.549 265.492 294.226 263.63 293.579C261.768 292.948 260.198 292.08 258.92 290.975C257.642 289.871 256.648 288.632 255.938 287.26L259.393 284.987C259.914 285.903 260.608 286.802 261.476 287.686C262.36 288.569 263.504 289.303 264.908 289.887C266.328 290.471 268.072 290.762 270.139 290.762C273.358 290.762 275.953 289.958 277.926 288.348C279.914 286.739 280.908 284.238 280.908 280.845V272.656H280.529C280.04 273.761 279.338 274.865 278.423 275.97C277.508 277.059 276.308 277.966 274.825 278.692C273.358 279.417 271.535 279.78 269.358 279.78C266.454 279.78 263.875 279.062 261.618 277.627C259.378 276.191 257.61 274.139 256.316 271.473C255.038 268.79 254.399 265.595 254.399 261.887C254.399 258.211 255.023 254.976 256.269 252.183C257.531 249.39 259.291 247.213 261.547 245.651C263.804 244.089 266.431 243.307 269.429 243.307C271.654 243.307 273.5 243.702 274.967 244.491C276.435 245.264 277.61 246.227 278.494 247.378C279.393 248.53 280.095 249.651 280.6 250.739H281.026V243.805H285.145V281.106C285.145 284.183 284.49 286.715 283.18 288.703C281.87 290.691 280.087 292.159 277.831 293.106C275.575 294.068 273.011 294.549 270.139 294.549ZM269.855 275.922C272.19 275.922 274.186 275.362 275.843 274.242C277.5 273.106 278.77 271.481 279.653 269.366C280.537 267.252 280.979 264.735 280.979 261.816C280.979 258.976 280.545 256.459 279.677 254.266C278.809 252.057 277.547 250.321 275.89 249.059C274.249 247.781 272.237 247.142 269.855 247.142C267.425 247.142 265.374 247.797 263.701 249.106C262.028 250.416 260.766 252.183 259.914 254.408C259.062 256.617 258.636 259.086 258.636 261.816C258.636 264.593 259.07 267.047 259.938 269.177C260.806 271.291 262.076 272.948 263.748 274.147C265.421 275.331 267.456 275.922 269.855 275.922Z" fill="#253780"/>
<path d="M233.619 280.159V243.805H237.713V249.39H238.021C238.747 247.56 240.009 246.085 241.808 244.964C243.622 243.828 245.674 243.26 247.962 243.26C248.309 243.26 248.695 243.268 249.121 243.284C249.547 243.3 249.902 243.315 250.186 243.331V247.615C249.997 247.584 249.666 247.536 249.192 247.473C248.719 247.41 248.206 247.378 247.654 247.378C245.76 247.378 244.072 247.781 242.589 248.586C241.121 249.375 239.962 250.471 239.11 251.875C238.258 253.28 237.831 254.881 237.831 256.68V280.159H233.619Z" fill="#253780"/>
<path d="M206.672 280.987C204.479 280.987 202.475 280.561 200.66 279.709C198.846 278.842 197.402 277.595 196.329 275.97C195.256 274.329 194.72 272.341 194.72 270.005C194.72 268.207 195.059 266.692 195.737 265.461C196.416 264.23 197.378 263.22 198.625 262.431C199.871 261.643 201.347 261.019 203.051 260.562C204.755 260.104 206.633 259.749 208.684 259.497C210.719 259.244 212.439 259.023 213.844 258.834C215.264 258.645 216.345 258.345 217.086 257.935C217.828 257.524 218.199 256.862 218.199 255.946V255.094C218.199 252.617 217.457 250.668 215.974 249.248C214.506 247.812 212.392 247.094 209.631 247.094C207.011 247.094 204.873 247.67 203.217 248.822C201.576 249.974 200.424 251.331 199.761 252.893L195.761 251.449C196.582 249.461 197.718 247.875 199.169 246.692C200.621 245.493 202.246 244.633 204.045 244.112C205.844 243.576 207.666 243.307 209.512 243.307C210.901 243.307 212.345 243.489 213.844 243.852C215.358 244.215 216.763 244.846 218.057 245.745C219.35 246.629 220.4 247.868 221.204 249.461C222.009 251.039 222.412 253.043 222.412 255.473V280.159H218.199V274.408H217.938C217.433 275.481 216.684 276.522 215.69 277.532C214.696 278.542 213.449 279.37 211.95 280.017C210.451 280.664 208.692 280.987 206.672 280.987ZM207.24 277.13C209.481 277.13 211.422 276.632 213.063 275.638C214.704 274.644 215.966 273.327 216.85 271.686C217.749 270.029 218.199 268.207 218.199 266.218V260.964C217.883 261.264 217.354 261.532 216.613 261.769C215.887 262.005 215.043 262.218 214.08 262.408C213.134 262.581 212.187 262.731 211.24 262.858C210.293 262.984 209.441 263.094 208.684 263.189C206.633 263.441 204.881 263.836 203.43 264.372C201.978 264.909 200.866 265.65 200.092 266.597C199.319 267.528 198.933 268.727 198.933 270.195C198.933 272.404 199.722 274.116 201.299 275.331C202.877 276.53 204.858 277.13 207.24 277.13Z" fill="#253780"/>
<path d="M161.874 257.438V280.159H157.661V231.686H161.874V249.509H162.253C163.105 247.631 164.422 246.132 166.205 245.012C168.004 243.891 170.276 243.331 173.022 243.331C175.483 243.331 177.645 243.836 179.507 244.846C181.369 245.856 182.82 247.347 183.862 249.319C184.903 251.292 185.424 253.722 185.424 256.609V280.159H181.187V256.869C181.187 253.872 180.351 251.513 178.678 249.793C177.022 248.057 174.781 247.189 171.957 247.189C170.016 247.189 168.288 247.599 166.773 248.42C165.258 249.24 164.059 250.424 163.176 251.97C162.308 253.501 161.874 255.323 161.874 257.438Z" fill="#253780"/>
<path d="M134.762 280.916C131.511 280.916 128.679 280.104 126.265 278.479C123.867 276.853 122.005 274.629 120.679 271.804C119.354 268.98 118.691 265.761 118.691 262.147C118.691 258.503 119.362 255.26 120.703 252.42C122.06 249.58 123.938 247.355 126.336 245.745C128.734 244.12 131.519 243.307 134.691 243.307C137.121 243.307 139.322 243.781 141.294 244.728C143.267 245.659 144.892 246.976 146.17 248.68C147.464 250.369 148.276 252.341 148.608 254.597H144.348C143.906 252.546 142.841 250.795 141.152 249.343C139.48 247.875 137.35 247.142 134.762 247.142C132.442 247.142 130.391 247.773 128.608 249.035C126.825 250.282 125.429 252.025 124.419 254.266C123.425 256.491 122.928 259.071 122.928 262.005C122.928 264.956 123.417 267.568 124.395 269.84C125.373 272.096 126.746 273.863 128.513 275.141C130.296 276.419 132.379 277.059 134.762 277.059C136.371 277.059 137.839 276.759 139.164 276.159C140.505 275.544 141.626 274.676 142.525 273.556C143.44 272.435 144.056 271.102 144.371 269.556H148.631C148.316 271.749 147.535 273.706 146.288 275.425C145.058 277.13 143.456 278.471 141.484 279.449C139.527 280.427 137.286 280.916 134.762 280.916Z" fill="#253780"/>
<path d="M110.815 251.781L106.958 252.869C106.579 251.781 106.042 250.795 105.348 249.911C104.654 249.027 103.746 248.325 102.626 247.804C101.522 247.284 100.149 247.023 98.5079 247.023C96.0464 247.023 94.0267 247.607 92.4488 248.775C90.8709 249.943 90.082 251.449 90.082 253.296C90.082 254.858 90.6185 256.128 91.6914 257.106C92.7802 258.069 94.4527 258.834 96.7091 259.402L102.2 260.751C105.245 261.493 107.526 262.668 109.04 264.278C110.571 265.887 111.336 267.907 111.336 270.337C111.336 272.388 110.768 274.21 109.632 275.804C108.496 277.398 106.91 278.652 104.875 279.567C102.855 280.467 100.512 280.916 97.8452 280.916C94.2949 280.916 91.368 280.12 89.0643 278.526C86.7605 276.917 85.2852 274.597 84.6383 271.567L88.6856 270.573C89.2063 272.735 90.224 274.368 91.7388 275.473C93.2693 276.577 95.2811 277.13 97.7742 277.13C100.567 277.13 102.8 276.506 104.472 275.26C106.145 273.997 106.981 272.42 106.981 270.526C106.981 269.059 106.492 267.828 105.514 266.834C104.535 265.824 103.052 265.082 101.064 264.609L95.1233 263.189C91.9676 262.432 89.6323 261.232 88.1175 259.591C86.6027 257.95 85.8454 255.915 85.8454 253.485C85.8454 251.481 86.3897 249.722 87.4785 248.207C88.5672 246.676 90.0662 245.477 91.9755 244.609C93.8847 243.741 96.0622 243.307 98.5079 243.307C101.837 243.307 104.496 244.065 106.484 245.58C108.488 247.079 109.932 249.146 110.815 251.781Z" fill="#253780"/>
<path d="M71.0112 280.159V243.805H75.2478V280.159H71.0112ZM73.165 237.556C72.2972 237.556 71.5556 237.264 70.9402 236.68C70.3248 236.081 70.0171 235.363 70.0171 234.527C70.0171 233.69 70.3248 232.98 70.9402 232.396C71.5556 231.797 72.2972 231.497 73.165 231.497C74.0328 231.497 74.7745 231.797 75.3898 232.396C76.0052 232.98 76.3129 233.69 76.3129 234.527C76.3129 235.363 76.0052 236.081 75.3898 236.68C74.7745 237.264 74.0328 237.556 73.165 237.556Z" fill="#253780"/>
<path d="M38.201 280.159H24V231.686H39.0531C43.6763 231.686 47.6289 232.649 50.9109 234.574C54.2087 236.499 56.7333 239.26 58.4847 242.858C60.2362 246.455 61.1119 250.771 61.1119 255.804C61.1119 260.885 60.2125 265.248 58.4137 268.893C56.6307 272.522 54.0272 275.307 50.6032 277.248C47.195 279.189 43.0609 280.159 38.201 280.159ZM28.426 276.183H37.9406C42.1063 276.183 45.5934 275.362 48.402 273.721C51.2107 272.08 53.3172 269.737 54.7215 266.692C56.1258 263.647 56.828 260.017 56.828 255.804C56.8122 251.623 56.1179 248.025 54.7452 245.012C53.3882 241.998 51.3685 239.686 48.6861 238.077C46.0194 236.467 42.7216 235.663 38.7927 235.663H28.426V276.183Z" fill="#253780"/>
<path d="M189.99 165.197C168.962 106.95 199.156 77.5589 199.156 77.5589H260.083C260.083 77.5589 224.497 89.8496 230.428 133.134C236.359 176.419 295.669 165.197 295.669 165.197L305.203 206.641C305.203 206.641 211.018 223.444 189.99 165.197Z" fill="#253780"/>
<path d="M102.133 73.842H154.74L156.526 208.89H100.772L102.133 73.842Z" fill="#253780"/>
<path d="M20.0856 75.0809H73.8224L74.3652 209.151H19L20.0856 75.0809Z" fill="#253780"/>
<path d="M335.674 55.0888L325.904 75.1722V55.1955V36.0909L335.674 55.0888Z" fill="#C89B2B"/>
<rect x="20.239" y="34.1949" width="299.832" height="40.8861" fill="#253780"/>
<path d="M301.892 83.7538L404.321 53.3804L301.892 28L263.501 42.495L229.626 41.8438V64.9169L263.501 64.2374L301.892 83.7538Z" fill="#253780"/>
<path d="M20.2422 51.0731H395.092L394.515 56.2646L20.2422 56.8414L20.2422 51.0731Z" fill="#DEAC31"/>
<path d="M200.385 75.0006H259.537L260.114 77.6071H199.274L200.385 75.0006Z" fill="#253780"/>
<path d="M395.092 51.0731L404.321 53.3804L394.515 56.2646L395.092 51.0731Z" fill="#DEAC31"/>
<path d="M501.671 49.3265H518.401C518.401 49.3265 508.147 59.5801 508.147 76.8494C508.147 96.2773 516.242 93.579 516.242 93.579L518.401 107.071C518.401 107.071 493.577 111.928 493.576 76.8494C493.576 63.3578 501.671 49.3265 501.671 49.3265Z" fill="#253780"/>
<path d="M435 33.0383H457.321H496.063H518.384V49.3264H501.671V47.7074H482.299V107.137H466.593L467.672 47.7074H452.551V107.61H435V33.0383Z" fill="#253780"/>
<path d="M876.889 56.3765C876.646 53.7063 875.566 51.6308 873.649 50.1501C871.755 48.6451 869.048 47.8925 865.529 47.8925C863.198 47.8925 861.256 48.196 859.703 48.8028C858.149 49.4097 856.984 50.2472 856.207 51.3153C855.43 52.3591 855.03 53.5607 855.006 54.9201C854.957 56.0367 855.175 57.0198 855.661 57.8694C856.171 58.7191 856.899 59.4716 857.846 60.127C858.817 60.7581 859.982 61.3165 861.341 61.8019C862.701 62.2874 864.23 62.7122 865.929 63.0764L872.338 64.5329C876.027 65.3339 879.28 66.402 882.096 67.7371C884.936 69.0722 887.315 70.6622 889.233 72.5071C891.175 74.352 892.643 76.476 893.639 78.8792C894.634 81.2824 895.144 83.9769 895.168 86.9627C895.144 91.672 893.954 95.7137 891.6 99.0879C889.245 102.462 885.859 105.047 881.441 106.844C877.047 108.64 871.743 109.538 865.529 109.538C859.29 109.538 853.852 108.604 849.216 106.734C844.58 104.865 840.975 102.025 838.402 98.214C835.829 94.4029 834.506 89.5844 834.433 83.7584H851.692C851.838 86.1616 852.481 88.1643 853.622 89.7664C854.763 91.3685 856.329 92.5823 858.319 93.4076C860.334 94.233 862.664 94.6456 865.31 94.6456C867.738 94.6456 869.801 94.3179 871.5 93.6625C873.224 93.0071 874.547 92.0968 875.469 90.9316C876.392 89.7664 876.865 88.4313 876.889 86.9263C876.865 85.5183 876.428 84.3167 875.578 83.3215C874.729 82.3019 873.418 81.4281 871.646 80.6998C869.898 79.9473 867.665 79.2555 864.946 78.6243L857.154 76.8037C850.697 75.323 845.611 72.9319 841.897 69.6305C838.183 66.3049 836.338 61.8141 836.363 56.1581C836.338 51.5459 837.576 47.5041 840.077 44.0329C842.577 40.5616 846.036 37.8549 850.454 35.913C854.872 33.971 859.909 33 865.565 33C871.342 33 876.355 33.9831 880.603 35.9494C884.876 37.8914 888.189 40.6223 890.544 44.1421C892.898 47.6619 894.1 51.7401 894.149 56.3765H876.889Z" fill="#253780"/>
<path d="M775.909 108.591H756.538L781.699 34.0195H805.695L830.855 108.591H811.484L793.97 52.8082H793.387L775.909 108.591ZM773.324 79.2433H813.814V92.9343H773.324V79.2433Z" fill="#253780"/>
<path d="M748.464 34.0195V108.591H730.44V34.0195H748.464Z" fill="#253780"/>
<path d="M662.55 108.591V34.0195H693.354C698.937 34.0195 703.756 35.0269 707.81 37.0417C711.888 39.0323 715.031 41.8967 717.24 45.635C719.449 49.349 720.554 53.7549 720.554 58.8526C720.554 64.0231 719.425 68.4168 717.168 72.0337C714.91 75.6264 711.706 78.3694 707.555 80.2629C703.404 82.132 698.488 83.0666 692.808 83.0666H673.328V68.8659H689.458C692.177 68.8659 694.447 68.5139 696.267 67.8099C698.112 67.0817 699.508 65.9893 700.455 64.5328C701.401 63.0521 701.875 61.1587 701.875 58.8526C701.875 56.5465 701.401 54.6409 700.455 53.1359C699.508 51.6066 698.112 50.4656 696.267 49.7131C694.422 48.9363 692.153 48.548 689.458 48.548H680.574V108.591H662.55ZM704.533 74.5098L723.103 108.591H703.44L685.234 74.5098H704.533Z" fill="#253780"/>
<path d="M590.718 48.6572V34.0195H653.747V48.6572H631.135V108.591H613.366V48.6572H590.718Z" fill="#253780"/>
<path d="M529.873 108.591V34.0195H581.87V48.6572H547.897V63.9503H579.211V78.6243H547.897V93.9538H581.87V108.591H529.873Z" fill="#253780"/>
<path d="M502.152 149H519C519 149 508.674 159.258 508.674 176.536C508.674 195.973 516.826 193.273 516.826 193.273L519 206.771C519 206.771 494 211.631 494 176.536C494 163.038 502.152 149 502.152 149Z" fill="#253780"/>
<path d="M435 133H457.486H496.514H519V149.382H502.164V147.753H482.649V207.524H466.827L467.914 147.753H452.68V208H435V133Z" fill="#253780"/>
<path d="M854.147 207.048V132.23H872.23V192.362H903.355V207.048H854.147Z" fill="#253780"/>
<path d="M790.965 207.048H771.53L796.774 132.23H820.848L846.092 207.048H826.657L809.085 151.081H808.501L790.965 207.048ZM788.371 177.603H828.995V191.339H788.371V177.603Z" fill="#253780"/>
<path d="M766.343 159.337H748.077C747.833 157.461 747.334 155.769 746.579 154.259C745.824 152.749 744.825 151.458 743.583 150.386C742.341 149.315 740.868 148.499 739.163 147.939C737.482 147.354 735.619 147.062 733.574 147.062C729.945 147.062 726.815 147.951 724.185 149.729C721.579 151.507 719.57 154.076 718.157 157.437C716.769 160.798 716.075 164.865 716.075 169.639C716.075 174.607 716.781 178.772 718.194 182.133C719.631 185.469 721.64 187.99 724.221 189.695C726.827 191.375 729.908 192.216 733.464 192.216C735.461 192.216 737.275 191.96 738.907 191.448C740.563 190.937 742.012 190.194 743.254 189.22C744.521 188.221 745.556 187.016 746.36 185.603C747.188 184.166 747.76 182.547 748.077 180.744L766.343 180.854C766.026 184.166 765.064 187.43 763.457 190.645C761.874 193.859 759.694 196.794 756.917 199.449C754.141 202.079 750.756 204.174 746.762 205.732C742.792 207.291 738.237 208.07 733.099 208.07C726.328 208.07 720.264 206.585 714.906 203.613C709.572 200.618 705.359 196.258 702.266 190.535C699.173 184.812 697.626 177.846 697.626 169.639C697.626 161.407 699.197 154.429 702.339 148.706C705.48 142.983 709.73 138.635 715.088 135.664C720.446 132.693 726.45 131.207 733.099 131.207C737.629 131.207 741.818 131.84 745.666 133.107C749.514 134.349 752.899 136.176 755.821 138.587C758.744 140.973 761.119 143.908 762.945 147.391C764.772 150.874 765.904 154.856 766.343 159.337Z" fill="#253780"/>
<path d="M687.078 132.23V207.048H668.994V132.23H687.078Z" fill="#253780"/>
<path d="M621.503 207.048H593.848V132.23H621.466C629.089 132.23 635.653 133.728 641.157 136.724C646.685 139.695 650.947 143.981 653.943 149.583C656.939 155.16 658.436 161.833 658.436 169.602C658.436 177.396 656.939 184.093 653.943 189.695C650.972 195.296 646.722 199.595 641.193 202.591C635.665 205.562 629.101 207.048 621.503 207.048ZM611.931 191.631H620.809C624.998 191.631 628.541 190.925 631.439 189.512C634.362 188.075 636.566 185.749 638.052 182.535C639.562 179.295 640.317 174.985 640.317 169.602C640.317 164.22 639.562 159.934 638.052 156.743C636.542 153.528 634.313 151.215 631.366 149.802C628.444 148.365 624.839 147.647 620.553 147.647H611.931V191.631Z" fill="#253780"/>
<path d="M530.356 207.048V132.23H582.523V146.916H548.439V162.259H579.856V176.982H548.439V192.362H582.523V207.048H530.356Z" fill="#253780"/>
<path d="M886.373 280.916C882.981 280.916 880.046 280.128 877.568 278.55C875.091 276.956 873.174 274.755 871.817 271.946C870.476 269.122 869.805 265.871 869.805 262.195C869.805 258.534 870.476 255.284 871.817 252.443C873.174 249.587 875.044 247.355 877.427 245.745C879.825 244.12 882.594 243.307 885.734 243.307C887.706 243.307 889.608 243.67 891.438 244.396C893.269 245.106 894.909 246.203 896.361 247.686C897.829 249.154 898.988 251.008 899.84 253.248C900.692 255.473 901.119 258.108 901.119 261.153V263.236H872.717V259.52H896.811C896.811 257.185 896.338 255.086 895.391 253.225C894.46 251.347 893.158 249.864 891.486 248.775C889.829 247.686 887.912 247.142 885.734 247.142C883.43 247.142 881.403 247.757 879.651 248.988C877.9 250.219 876.527 251.844 875.533 253.864C874.555 255.883 874.058 258.092 874.042 260.491V262.716C874.042 265.603 874.539 268.128 875.533 270.289C876.543 272.435 877.971 274.1 879.817 275.283C881.663 276.467 883.848 277.059 886.373 277.059C888.093 277.059 889.6 276.79 890.894 276.254C892.203 275.717 893.3 274.999 894.184 274.1C895.083 273.185 895.762 272.183 896.219 271.094L900.219 272.396C899.667 273.926 898.759 275.339 897.497 276.632C896.251 277.926 894.689 278.968 892.811 279.757C890.949 280.53 888.803 280.916 886.373 280.916Z" fill="#253780"/>
<path d="M848.776 280.916C845.526 280.916 842.693 280.104 840.279 278.479C837.881 276.853 836.019 274.629 834.693 271.804C833.368 268.98 832.705 265.761 832.705 262.147C832.705 258.503 833.376 255.26 834.717 252.42C836.074 249.58 837.952 247.355 840.35 245.745C842.749 244.12 845.534 243.307 848.705 243.307C851.135 243.307 853.336 243.781 855.309 244.728C857.281 245.659 858.906 246.976 860.184 248.68C861.478 250.369 862.291 252.341 862.622 254.597H858.362C857.92 252.546 856.855 250.795 855.167 249.343C853.494 247.875 851.364 247.142 848.776 247.142C846.457 247.142 844.405 247.773 842.622 249.035C840.839 250.282 839.443 252.025 838.433 254.266C837.439 256.491 836.942 259.071 836.942 262.005C836.942 264.956 837.431 267.568 838.409 269.84C839.388 272.096 840.76 273.863 842.528 275.141C844.311 276.419 846.393 277.059 848.776 277.059C850.386 277.059 851.853 276.759 853.178 276.159C854.52 275.544 855.64 274.676 856.539 273.556C857.454 272.435 858.07 271.102 858.385 269.556H862.646C862.33 271.749 861.549 273.706 860.303 275.425C859.072 277.13 857.47 278.471 855.498 279.449C853.541 280.427 851.301 280.916 848.776 280.916Z" fill="#253780"/>
<path d="M819.196 280.159V243.805H823.433V280.159H819.196ZM821.35 237.556C820.482 237.556 819.741 237.264 819.126 236.68C818.51 236.081 818.202 235.363 818.202 234.527C818.202 233.69 818.51 232.98 819.126 232.396C819.741 231.797 820.482 231.497 821.35 231.497C822.218 231.497 822.96 231.797 823.575 232.396C824.191 232.98 824.498 233.69 824.498 234.527C824.498 235.363 824.191 236.081 823.575 236.68C822.96 237.264 822.218 237.556 821.35 237.556Z" fill="#253780"/>
<path d="M810.907 243.805L797.629 280.159H793.132L779.854 243.805H784.422L795.215 274.597H795.546L806.339 243.805H810.907Z" fill="#253780"/>
<path d="M757.901 280.159V243.805H761.996V249.39H762.304C763.03 247.56 764.292 246.085 766.091 244.964C767.905 243.828 769.957 243.26 772.245 243.26C772.592 243.26 772.978 243.268 773.404 243.284C773.83 243.3 774.185 243.315 774.469 243.331V247.615C774.28 247.584 773.949 247.536 773.475 247.473C773.002 247.41 772.489 247.378 771.937 247.378C770.043 247.378 768.355 247.781 766.872 248.586C765.404 249.375 764.245 250.471 763.393 251.875C762.54 253.28 762.114 254.881 762.114 256.68V280.159H757.901Z" fill="#253780"/>
<path d="M733.872 280.916C730.48 280.916 727.545 280.128 725.068 278.55C722.59 276.956 720.673 274.755 719.316 271.946C717.975 269.122 717.304 265.871 717.304 262.195C717.304 258.534 717.975 255.284 719.316 252.443C720.673 249.587 722.543 247.355 724.926 245.745C727.324 244.12 730.093 243.307 733.233 243.307C735.206 243.307 737.107 243.67 738.937 244.396C740.768 245.106 742.409 246.203 743.86 247.686C745.328 249.154 746.487 251.008 747.339 253.248C748.192 255.473 748.618 258.108 748.618 261.153V263.236H720.216V259.52H744.31C744.31 257.185 743.837 255.086 742.89 253.225C741.959 251.347 740.657 249.864 738.985 248.775C737.328 247.686 735.411 247.142 733.233 247.142C730.93 247.142 728.902 247.757 727.15 248.988C725.399 250.219 724.026 251.844 723.032 253.864C722.054 255.883 721.557 258.092 721.541 260.491V262.716C721.541 265.603 722.038 268.128 723.032 270.289C724.042 272.435 725.47 274.1 727.316 275.283C729.162 276.467 731.348 277.059 733.872 277.059C735.592 277.059 737.099 276.79 738.393 276.254C739.703 275.717 740.799 274.999 741.683 274.1C742.582 273.185 743.261 272.183 743.718 271.094L747.718 272.396C747.166 273.926 746.259 275.339 744.996 276.632C743.75 277.926 742.188 278.968 740.31 279.757C738.448 280.53 736.302 280.916 733.872 280.916Z" fill="#253780"/>
<path d="M704.452 243.805C704.184 241.106 702.993 238.96 700.879 237.367C698.764 235.773 696.105 234.976 692.902 234.976C690.646 234.976 688.658 235.363 686.938 236.136C685.234 236.909 683.893 237.982 682.914 239.355C681.952 240.712 681.471 242.258 681.471 243.994C681.471 245.272 681.747 246.392 682.299 247.355C682.851 248.317 683.593 249.146 684.524 249.84C685.47 250.518 686.512 251.102 687.648 251.591C688.8 252.081 689.96 252.491 691.127 252.822L696.24 254.29C697.786 254.716 699.332 255.26 700.879 255.923C702.425 256.585 703.837 257.422 705.115 258.432C706.409 259.426 707.443 260.649 708.216 262.1C709.005 263.536 709.399 265.264 709.399 267.284C709.399 269.871 708.729 272.199 707.387 274.266C706.046 276.333 704.121 277.974 701.612 279.189C699.103 280.388 696.098 280.987 692.595 280.987C689.297 280.987 686.433 280.443 684.003 279.354C681.573 278.25 679.664 276.727 678.275 274.786C676.887 272.846 676.106 270.597 675.932 268.041H680.476C680.634 269.95 681.265 271.568 682.37 272.893C683.474 274.218 684.91 275.228 686.678 275.922C688.445 276.601 690.417 276.94 692.595 276.94C695.009 276.94 697.155 276.538 699.032 275.733C700.926 274.913 702.409 273.777 703.482 272.325C704.571 270.857 705.115 269.153 705.115 267.213C705.115 265.572 704.689 264.199 703.837 263.094C702.985 261.974 701.794 261.035 700.263 260.278C698.748 259.52 696.989 258.85 694.985 258.266L689.186 256.562C685.384 255.426 682.433 253.856 680.334 251.852C678.236 249.848 677.187 247.292 677.187 244.183C677.187 241.58 677.881 239.292 679.269 237.319C680.674 235.331 682.567 233.785 684.95 232.68C687.348 231.56 690.038 231 693.021 231C696.034 231 698.701 231.552 701.021 232.657C703.34 233.761 705.178 235.284 706.535 237.225C707.908 239.15 708.642 241.343 708.736 243.805H704.452Z" fill="#253780"/>
<path d="M624.128 257.438V280.159H619.915V243.805H624.01V249.509H624.388C625.241 247.647 626.566 246.156 628.365 245.035C630.179 243.899 632.42 243.331 635.087 243.331C637.532 243.331 639.678 243.844 641.524 244.87C643.386 245.88 644.83 247.371 645.856 249.343C646.897 251.315 647.418 253.737 647.418 256.609V280.159H643.205V256.87C643.205 253.887 642.369 251.528 640.696 249.793C639.039 248.057 636.814 247.189 634.021 247.189C632.112 247.189 630.416 247.599 628.933 248.42C627.45 249.24 626.274 250.424 625.406 251.97C624.554 253.501 624.128 255.323 624.128 257.438Z" fill="#253780"/>
<path d="M594.667 280.916C591.527 280.916 588.75 280.12 586.336 278.526C583.937 276.932 582.06 274.731 580.703 271.923C579.346 269.098 578.667 265.84 578.667 262.147C578.667 258.424 579.346 255.15 580.703 252.325C582.06 249.485 583.937 247.276 586.336 245.698C588.75 244.104 591.527 243.307 594.667 243.307C597.807 243.307 600.576 244.104 602.974 245.698C605.373 247.292 607.251 249.501 608.608 252.325C609.98 255.15 610.667 258.424 610.667 262.147C610.667 265.84 609.988 269.098 608.631 271.923C607.274 274.731 605.389 276.932 602.974 278.526C600.576 280.12 597.807 280.916 594.667 280.916ZM594.667 277.059C597.192 277.059 599.33 276.38 601.081 275.023C602.832 273.666 604.158 271.859 605.057 269.603C605.972 267.347 606.43 264.861 606.43 262.147C606.43 259.434 605.972 256.94 605.057 254.668C604.158 252.396 602.832 250.574 601.081 249.201C599.33 247.828 597.192 247.142 594.667 247.142C592.158 247.142 590.02 247.828 588.253 249.201C586.501 250.574 585.168 252.396 584.253 254.668C583.353 256.94 582.904 259.434 582.904 262.147C582.904 264.861 583.353 267.347 584.253 269.603C585.168 271.859 586.501 273.666 588.253 275.023C590.004 276.38 592.142 277.059 594.667 277.059Z" fill="#253780"/>
<path d="M565.159 280.159V243.805H569.395V280.159H565.159ZM567.312 237.556C566.445 237.556 565.703 237.264 565.088 236.68C564.472 236.081 564.165 235.363 564.165 234.527C564.165 233.69 564.472 232.98 565.088 232.396C565.703 231.797 566.445 231.497 567.312 231.497C568.18 231.497 568.922 231.797 569.537 232.396C570.153 232.98 570.46 233.69 570.46 234.527C570.46 235.363 570.153 236.081 569.537 236.68C568.922 237.264 568.18 237.556 567.312 237.556Z" fill="#253780"/>
<path d="M555.543 243.805V247.473H538.194V243.805H555.543ZM543.614 235.095H547.851V270.668C547.851 272.183 548.111 273.374 548.632 274.242C549.153 275.094 549.831 275.702 550.668 276.064C551.504 276.412 552.395 276.585 553.342 276.585C553.894 276.585 554.368 276.554 554.762 276.491C555.157 276.412 555.504 276.333 555.804 276.254L556.703 280.064C556.293 280.222 555.788 280.364 555.188 280.49C554.589 280.632 553.847 280.703 552.963 280.703C551.417 280.703 549.926 280.364 548.49 279.686C547.07 279.007 545.902 277.997 544.987 276.656C544.072 275.315 543.614 273.65 543.614 271.662V235.095Z" fill="#253780"/>
<path d="M525.857 266.266V243.805H530.07V280.159H525.857V274.124H525.526C524.674 275.986 523.325 277.54 521.479 278.786C519.632 280.017 517.376 280.633 514.709 280.633C512.39 280.633 510.331 280.128 508.532 279.118C506.733 278.092 505.321 276.593 504.295 274.621C503.27 272.648 502.757 270.226 502.757 267.355V243.805H506.97V267.094C506.97 269.934 507.806 272.222 509.479 273.958C511.151 275.678 513.297 276.538 515.917 276.538C517.558 276.538 519.135 276.143 520.65 275.355C522.165 274.566 523.412 273.414 524.39 271.899C525.368 270.368 525.857 268.491 525.857 266.266Z" fill="#253780"/>
<path d="M479.858 280.916C476.607 280.916 473.775 280.104 471.361 278.479C468.963 276.853 467.101 274.629 465.775 271.804C464.45 268.98 463.787 265.761 463.787 262.147C463.787 258.503 464.458 255.26 465.799 252.42C467.156 249.58 469.034 247.355 471.432 245.745C473.83 244.12 476.615 243.307 479.787 243.307C482.217 243.307 484.418 243.781 486.39 244.728C488.363 245.659 489.988 246.976 491.266 248.68C492.56 250.369 493.373 252.341 493.704 254.597H489.444C489.002 252.546 487.937 250.795 486.248 249.343C484.576 247.875 482.446 247.142 479.858 247.142C477.538 247.142 475.487 247.773 473.704 249.035C471.921 250.282 470.525 252.025 469.515 254.266C468.521 256.491 468.024 259.071 468.024 262.005C468.024 264.956 468.513 267.568 469.491 269.84C470.469 272.096 471.842 273.863 473.609 275.141C475.392 276.419 477.475 277.059 479.858 277.059C481.467 277.059 482.935 276.759 484.26 276.159C485.601 275.544 486.722 274.676 487.621 273.556C488.536 272.435 489.152 271.102 489.467 269.556H493.728C493.412 271.749 492.631 273.706 491.384 275.425C490.154 277.13 488.552 278.471 486.58 279.449C484.623 280.427 482.382 280.916 479.858 280.916Z" fill="#253780"/>
<path d="M441.628 280.916C438.235 280.916 435.3 280.128 432.823 278.55C430.346 276.956 428.429 274.755 427.072 271.946C425.73 269.122 425.06 265.871 425.06 262.195C425.06 258.534 425.73 255.284 427.072 252.443C428.429 249.587 430.298 247.355 432.681 245.745C435.079 244.12 437.849 243.307 440.989 243.307C442.961 243.307 444.862 243.67 446.693 244.396C448.523 245.106 450.164 246.203 451.616 247.686C453.083 249.154 454.243 251.008 455.095 253.248C455.947 255.473 456.373 258.108 456.373 261.153V263.236H427.971V259.52H452.065C452.065 257.185 451.592 255.086 450.645 253.225C449.714 251.347 448.412 249.864 446.74 248.775C445.083 247.686 443.166 247.142 440.989 247.142C438.685 247.142 436.657 247.757 434.906 248.988C433.154 250.219 431.782 251.844 430.787 253.864C429.809 255.883 429.312 258.092 429.296 260.491V262.716C429.296 265.603 429.793 268.128 430.787 270.289C431.797 272.435 433.225 274.1 435.071 275.283C436.918 276.467 439.103 277.059 441.628 277.059C443.347 277.059 444.854 276.79 446.148 276.254C447.458 275.717 448.554 274.999 449.438 274.1C450.337 273.185 451.016 272.183 451.474 271.094L455.474 272.396C454.921 273.926 454.014 275.339 452.752 276.632C451.505 277.926 449.943 278.968 448.065 279.757C446.203 280.53 444.057 280.916 441.628 280.916Z" fill="#253780"/>
<path d="M395.948 243.805L405.32 259.307L414.693 243.805H419.592L407.9 261.982L419.592 280.159H414.693L405.32 265.153L395.948 280.159H391.072L402.622 261.982L391.072 243.805H395.948Z" fill="#253780"/>
<path d="M354.646 280.159V231.686H382.764V235.663H359.072V253.911H381.273V257.887H359.072V276.183H383.238V280.159H354.646Z" fill="#253780"/>
<path d="M310.996 280.916C307.604 280.916 304.669 280.128 302.192 278.55C299.714 276.956 297.797 274.755 296.44 271.946C295.099 269.122 294.428 265.871 294.428 262.195C294.428 258.534 295.099 255.284 296.44 252.443C297.797 249.587 299.667 247.355 302.05 245.745C304.448 244.12 307.217 243.307 310.357 243.307C312.33 243.307 314.231 243.67 316.061 244.396C317.892 245.106 319.533 246.203 320.984 247.686C322.452 249.154 323.611 251.008 324.463 253.248C325.316 255.473 325.742 258.108 325.742 261.153V263.236H297.34V259.52H321.434C321.434 257.185 320.961 255.086 320.014 253.225C319.083 251.347 317.781 249.864 316.109 248.775C314.452 247.686 312.535 247.142 310.357 247.142C308.053 247.142 306.026 247.757 304.274 248.988C302.523 250.219 301.15 251.844 300.156 253.864C299.178 255.883 298.681 258.092 298.665 260.491V262.716C298.665 265.603 299.162 268.128 300.156 270.289C301.166 272.435 302.594 274.1 304.44 275.283C306.286 276.467 308.472 277.059 310.996 277.059C312.716 277.059 314.223 276.79 315.517 276.254C316.826 275.717 317.923 274.999 318.807 274.1C319.706 273.185 320.385 272.183 320.842 271.094L324.842 272.396C324.29 273.926 323.383 275.339 322.12 276.632C320.874 277.926 319.312 278.968 317.434 279.757C315.572 280.53 313.426 280.916 310.996 280.916Z" fill="#253780"/>
<path d="M270.139 294.549C267.662 294.549 265.492 294.226 263.63 293.579C261.768 292.948 260.198 292.08 258.92 290.975C257.642 289.871 256.648 288.632 255.938 287.26L259.393 284.987C259.914 285.903 260.608 286.802 261.476 287.686C262.36 288.569 263.504 289.303 264.908 289.887C266.328 290.471 268.072 290.762 270.139 290.762C273.358 290.762 275.953 289.958 277.926 288.348C279.914 286.739 280.908 284.238 280.908 280.845V272.656H280.529C280.04 273.761 279.338 274.865 278.423 275.97C277.508 277.059 276.308 277.966 274.825 278.692C273.358 279.417 271.535 279.78 269.358 279.78C266.454 279.78 263.875 279.062 261.618 277.627C259.378 276.191 257.61 274.139 256.316 271.473C255.038 268.79 254.399 265.595 254.399 261.887C254.399 258.211 255.023 254.976 256.269 252.183C257.531 249.39 259.291 247.213 261.547 245.651C263.804 244.089 266.431 243.307 269.429 243.307C271.654 243.307 273.5 243.702 274.967 244.491C276.435 245.264 277.61 246.227 278.494 247.378C279.393 248.53 280.095 249.651 280.6 250.739H281.026V243.805H285.145V281.106C285.145 284.183 284.49 286.715 283.18 288.703C281.87 290.691 280.087 292.159 277.831 293.106C275.575 294.068 273.011 294.549 270.139 294.549ZM269.855 275.922C272.19 275.922 274.186 275.362 275.843 274.242C277.5 273.106 278.77 271.481 279.653 269.366C280.537 267.252 280.979 264.735 280.979 261.816C280.979 258.976 280.545 256.459 279.677 254.266C278.809 252.057 277.547 250.321 275.89 249.059C274.249 247.781 272.237 247.142 269.855 247.142C267.425 247.142 265.374 247.797 263.701 249.106C262.028 250.416 260.766 252.183 259.914 254.408C259.062 256.617 258.636 259.086 258.636 261.816C258.636 264.593 259.07 267.047 259.938 269.177C260.806 271.291 262.076 272.948 263.748 274.147C265.421 275.331 267.456 275.922 269.855 275.922Z" fill="#253780"/>
<path d="M233.619 280.159V243.805H237.713V249.39H238.021C238.747 247.56 240.009 246.085 241.808 244.964C243.622 243.828 245.674 243.26 247.962 243.26C248.309 243.26 248.695 243.268 249.121 243.284C249.547 243.3 249.902 243.315 250.186 243.331V247.615C249.997 247.584 249.666 247.536 249.192 247.473C248.719 247.41 248.206 247.378 247.654 247.378C245.76 247.378 244.072 247.781 242.589 248.586C241.121 249.375 239.962 250.471 239.11 251.875C238.258 253.28 237.831 254.881 237.831 256.68V280.159H233.619Z" fill="#253780"/>
<path d="M206.672 280.987C204.479 280.987 202.475 280.561 200.66 279.709C198.846 278.842 197.402 277.595 196.329 275.97C195.256 274.329 194.72 272.341 194.72 270.005C194.72 268.207 195.059 266.692 195.737 265.461C196.416 264.23 197.378 263.22 198.625 262.431C199.871 261.643 201.347 261.019 203.051 260.562C204.755 260.104 206.633 259.749 208.684 259.497C210.719 259.244 212.439 259.023 213.844 258.834C215.264 258.645 216.345 258.345 217.086 257.935C217.828 257.524 218.199 256.862 218.199 255.946V255.094C218.199 252.617 217.457 250.668 215.974 249.248C214.506 247.812 212.392 247.094 209.631 247.094C207.011 247.094 204.873 247.67 203.217 248.822C201.576 249.974 200.424 251.331 199.761 252.893L195.761 251.449C196.582 249.461 197.718 247.875 199.169 246.692C200.621 245.493 202.246 244.633 204.045 244.112C205.844 243.576 207.666 243.307 209.512 243.307C210.901 243.307 212.345 243.489 213.844 243.852C215.358 244.215 216.763 244.846 218.057 245.745C219.35 246.629 220.4 247.868 221.204 249.461C222.009 251.039 222.412 253.043 222.412 255.473V280.159H218.199V274.408H217.938C217.433 275.481 216.684 276.522 215.69 277.532C214.696 278.542 213.449 279.37 211.95 280.017C210.451 280.664 208.692 280.987 206.672 280.987ZM207.24 277.13C209.481 277.13 211.422 276.632 213.063 275.638C214.704 274.644 215.966 273.327 216.85 271.686C217.749 270.029 218.199 268.207 218.199 266.218V260.964C217.883 261.264 217.354 261.532 216.613 261.769C215.887 262.005 215.043 262.218 214.08 262.408C213.134 262.581 212.187 262.731 211.24 262.858C210.293 262.984 209.441 263.094 208.684 263.189C206.633 263.441 204.881 263.836 203.43 264.372C201.978 264.909 200.866 265.65 200.092 266.597C199.319 267.528 198.933 268.727 198.933 270.195C198.933 272.404 199.722 274.116 201.299 275.331C202.877 276.53 204.858 277.13 207.24 277.13Z" fill="#253780"/>
<path d="M161.874 257.438V280.159H157.661V231.686H161.874V249.509H162.253C163.105 247.631 164.422 246.132 166.205 245.012C168.004 243.891 170.276 243.331 173.022 243.331C175.483 243.331 177.645 243.836 179.507 244.846C181.369 245.856 182.82 247.347 183.862 249.319C184.903 251.292 185.424 253.722 185.424 256.609V280.159H181.187V256.869C181.187 253.872 180.351 251.513 178.678 249.793C177.022 248.057 174.781 247.189 171.957 247.189C170.016 247.189 168.288 247.599 166.773 248.42C165.258 249.24 164.059 250.424 163.176 251.97C162.308 253.501 161.874 255.323 161.874 257.438Z" fill="#253780"/>
<path d="M134.762 280.916C131.511 280.916 128.679 280.104 126.265 278.479C123.867 276.853 122.005 274.629 120.679 271.804C119.354 268.98 118.691 265.761 118.691 262.147C118.691 258.503 119.362 255.26 120.703 252.42C122.06 249.58 123.938 247.355 126.336 245.745C128.734 244.12 131.519 243.307 134.691 243.307C137.121 243.307 139.322 243.781 141.294 244.728C143.267 245.659 144.892 246.976 146.17 248.68C147.464 250.369 148.276 252.341 148.608 254.597H144.348C143.906 252.546 142.841 250.795 141.152 249.343C139.48 247.875 137.35 247.142 134.762 247.142C132.442 247.142 130.391 247.773 128.608 249.035C126.825 250.282 125.429 252.025 124.419 254.266C123.425 256.491 122.928 259.071 122.928 262.005C122.928 264.956 123.417 267.568 124.395 269.84C125.373 272.096 126.746 273.863 128.513 275.141C130.296 276.419 132.379 277.059 134.762 277.059C136.371 277.059 137.839 276.759 139.164 276.159C140.505 275.544 141.626 274.676 142.525 273.556C143.44 272.435 144.056 271.102 144.371 269.556H148.631C148.316 271.749 147.535 273.706 146.288 275.425C145.058 277.13 143.456 278.471 141.484 279.449C139.527 280.427 137.286 280.916 134.762 280.916Z" fill="#253780"/>
<path d="M110.815 251.781L106.958 252.869C106.579 251.781 106.042 250.795 105.348 249.911C104.654 249.027 103.746 248.325 102.626 247.804C101.522 247.284 100.149 247.023 98.5079 247.023C96.0464 247.023 94.0267 247.607 92.4488 248.775C90.8709 249.943 90.082 251.449 90.082 253.296C90.082 254.858 90.6185 256.128 91.6914 257.106C92.7802 258.069 94.4527 258.834 96.7091 259.402L102.2 260.751C105.245 261.493 107.526 262.668 109.04 264.278C110.571 265.887 111.336 267.907 111.336 270.337C111.336 272.388 110.768 274.21 109.632 275.804C108.496 277.398 106.91 278.652 104.875 279.567C102.855 280.467 100.512 280.916 97.8452 280.916C94.2949 280.916 91.368 280.12 89.0643 278.526C86.7605 276.917 85.2852 274.597 84.6383 271.567L88.6856 270.573C89.2063 272.735 90.224 274.368 91.7388 275.473C93.2693 276.577 95.2811 277.13 97.7742 277.13C100.567 277.13 102.8 276.506 104.472 275.26C106.145 273.997 106.981 272.42 106.981 270.526C106.981 269.059 106.492 267.828 105.514 266.834C104.535 265.824 103.052 265.082 101.064 264.609L95.1233 263.189C91.9676 262.432 89.6323 261.232 88.1175 259.591C86.6027 257.95 85.8454 255.915 85.8454 253.485C85.8454 251.481 86.3897 249.722 87.4785 248.207C88.5672 246.676 90.0662 245.477 91.9755 244.609C93.8847 243.741 96.0622 243.307 98.5079 243.307C101.837 243.307 104.496 244.065 106.484 245.58C108.488 247.079 109.932 249.146 110.815 251.781Z" fill="#253780"/>
<path d="M71.0112 280.159V243.805H75.2478V280.159H71.0112ZM73.165 237.556C72.2972 237.556 71.5556 237.264 70.9402 236.68C70.3248 236.081 70.0171 235.363 70.0171 234.527C70.0171 233.69 70.3248 232.98 70.9402 232.396C71.5556 231.797 72.2972 231.497 73.165 231.497C74.0328 231.497 74.7745 231.797 75.3898 232.396C76.0052 232.98 76.3129 233.69 76.3129 234.527C76.3129 235.363 76.0052 236.081 75.3898 236.68C74.7745 237.264 74.0328 237.556 73.165 237.556Z" fill="#253780"/>
<path d="M38.201 280.159H24V231.686H39.0531C43.6763 231.686 47.6289 232.649 50.9109 234.574C54.2087 236.499 56.7333 239.26 58.4847 242.858C60.2362 246.455 61.1119 250.771 61.1119 255.804C61.1119 260.885 60.2125 265.248 58.4137 268.893C56.6307 272.522 54.0272 275.307 50.6032 277.248C47.195 279.189 43.0609 280.159 38.201 280.159ZM28.426 276.183H37.9406C42.1063 276.183 45.5934 275.362 48.402 273.721C51.2107 272.08 53.3172 269.737 54.7215 266.692C56.1258 263.647 56.828 260.017 56.828 255.804C56.8122 251.623 56.1179 248.025 54.7452 245.012C53.3882 241.998 51.3685 239.686 48.6861 238.077C46.0194 236.467 42.7216 235.663 38.7927 235.663H28.426V276.183Z" fill="#253780"/>
</svg>
