<svg width="931" height="315" viewBox="0 0 931 315" fill="none" xmlns="http://www.w3.org/2000/svg">
<rect width="931" height="315" fill="white"/>
<rect x="323" y="24" width="289" height="274" fill="#1A1D26"/>
<rect x="26" y="24" width="289" height="274" fill="#D9D9D9"/>
<rect x="628" y="24" width="282" height="274" fill="#1A2622"/>
<path d="M174.559 184.464C163.299 153.275 179.467 137.537 179.467 137.537H212.091C212.091 137.537 193.036 144.118 196.212 167.295C199.388 190.473 231.146 184.464 231.146 184.464L236.251 206.656C236.251 206.656 185.818 215.653 174.559 184.464Z" fill="#253780"/>
<path d="M127.515 135.547H155.684L156.64 207.86H126.786L127.515 135.547Z" fill="#253780"/>
<path d="M83.5813 136.21H112.355L112.646 208H83L83.5813 136.21Z" fill="#253780"/>
<path d="M252.567 125.505L247.336 136.259V125.562V115.332L252.567 125.505Z" fill="#C89B2B"/>
<rect x="83.6633" y="114.317" width="160.549" height="21.893" fill="#253780"/>
<path d="M88.5596 118.413H196.664V130.768H88.5596V118.413Z" fill="#253780"/>
<path d="M234.478 140.854L289.325 124.59L234.478 111L213.921 118.762L195.782 118.413V130.768L213.921 130.404L234.478 140.854Z" fill="#253780"/>
<path d="M179.507 136.167L212.108 136.167L212.108 137.563H179.507V136.167Z" fill="#253780"/>
<path d="M783.727 185.192C772.816 154.967 788.483 139.716 788.483 139.716H820.099C820.099 139.716 801.633 146.094 804.711 168.554C807.788 191.015 838.565 185.192 838.565 185.192L843.512 206.697C843.512 206.697 794.639 215.416 783.727 185.192Z" fill="#DEAC31"/>
<path d="M738.138 137.788H765.436L766.363 207.864H737.432L738.138 137.788Z" fill="#DEAC31"/>
<path d="M695.563 138.43H723.447L723.729 208H695L695.563 138.43Z" fill="#DEAC31"/>
<path d="M859.323 128.056L854.253 138.478V128.112V118.198L859.323 128.056Z" fill="#C89B2B"/>
<rect x="695.643" y="117.215" width="155.583" height="21.2159" fill="#DEAC31"/>
<path d="M700.388 121.184H805.149V133.156H700.388V121.184Z" fill="#DEAC31"/>
<path d="M841.793 142.931L894.944 127.17L841.793 114L821.872 121.521L804.294 121.184V133.156L821.872 132.804L841.793 142.931Z" fill="#DEAC31"/>
<path d="M788.522 138.389L820.115 138.389L820.115 139.741H788.522V138.389Z" fill="#DEAC31"/>
<path d="M480.727 182.192C469.816 151.967 485.483 136.716 485.483 136.716H517.099C517.099 136.716 498.633 143.094 501.711 165.554C504.788 188.015 535.565 182.192 535.565 182.192L540.512 203.697C540.512 203.697 491.639 212.416 480.727 182.192Z" fill="white"/>
<path d="M435.138 134.788H462.436L463.363 204.864H434.432L435.138 134.788Z" fill="white"/>
<path d="M392.563 135.43H420.447L420.729 205H392L392.563 135.43Z" fill="white"/>
<path d="M556.323 125.056L551.253 135.478V125.112V115.198L556.323 125.056Z" fill="white"/>
<rect x="392.643" y="114.215" width="155.583" height="21.2159" fill="white"/>
<path d="M397.388 118.184H502.149V130.156H397.388V118.184Z" fill="white"/>
<path d="M538.793 139.931L591.944 124.17L538.793 111L518.872 118.521L501.294 118.184V130.156L518.872 129.804L538.793 139.931Z" fill="white"/>
<path d="M485.522 135.389L517.115 135.389L517.115 136.741H485.522V135.389Z" fill="white"/>
</svg>
