<svg width="1910" height="1410" viewBox="0 0 1910 1410" fill="none" xmlns="http://www.w3.org/2000/svg">
<rect width="1910" height="1410" fill="white"/>
<g clip-path="url(#clip0_19_3)">
<rect width="903" height="289" transform="translate(974 747)" fill="white"/>
<rect x="974" y="747" width="903" height="289" fill="#1A1D26"/>
<path d="M1424.22 888.924C1405.99 838.434 1432.16 812.958 1432.16 812.958H1484.97C1484.97 812.958 1454.13 823.612 1459.27 861.131C1464.41 898.651 1515.82 888.924 1515.82 888.924L1524.08 924.848C1524.08 924.848 1442.44 939.413 1424.22 888.924Z" fill="white"/>
<path d="M1348.06 809.736H1393.66L1395.21 926.797H1346.88L1348.06 809.736Z" fill="white"/>
<path d="M1276.94 810.81H1323.52L1323.99 927.024H1276L1276.94 810.81Z" fill="white"/>
<path d="M1550.5 793.481L1542.03 810.889V793.573V777.013L1550.5 793.481Z" fill="white"/>
<rect x="1277.07" y="775.37" width="259.897" height="35.4405" fill="white"/>
<path d="M1285 782H1460V802H1285V782Z" fill="white"/>
<path d="M1521.21 818.328L1610 792L1521.21 770L1487.94 782.564L1458.57 782V802L1487.94 801.411L1521.21 818.328Z" fill="white"/>
<path d="M1432.23 810.741L1485 810.741L1485 813H1432.23V810.741Z" fill="white"/>
<path d="M1601.36 962.902C1601.05 959.956 1599.72 957.662 1597.38 956.02C1595.07 954.378 1592.05 953.558 1588.34 953.558C1585.73 953.558 1583.5 953.951 1581.63 954.738C1579.76 955.525 1578.33 956.594 1577.34 957.943C1576.36 959.293 1575.85 960.833 1575.83 962.565C1575.83 964.004 1576.15 965.253 1576.8 966.31C1577.48 967.367 1578.39 968.266 1579.54 969.009C1580.68 969.728 1581.96 970.335 1583.35 970.83C1584.74 971.325 1586.15 971.741 1587.57 972.078L1594.04 973.698C1596.65 974.305 1599.16 975.126 1601.57 976.161C1604 977.195 1606.17 978.5 1608.08 980.074C1610.01 981.648 1611.54 983.549 1612.67 985.775C1613.79 988.002 1614.35 990.611 1614.35 993.602C1614.35 997.65 1613.32 1001.21 1611.25 1004.3C1609.18 1007.35 1606.19 1009.75 1602.28 1011.48C1598.38 1013.19 1593.67 1014.05 1588.14 1014.05C1582.76 1014.05 1578.1 1013.21 1574.14 1011.55C1570.2 1009.89 1567.12 1007.46 1564.9 1004.26C1562.69 1001.07 1561.5 997.178 1561.32 992.59H1573.63C1573.81 994.996 1574.56 996.998 1575.86 998.595C1577.16 1000.19 1578.86 1001.38 1580.95 1002.17C1583.07 1002.96 1585.43 1003.35 1588.04 1003.35C1590.76 1003.35 1593.14 1002.95 1595.19 1002.14C1597.26 1001.3 1598.88 1000.16 1600.05 998.696C1601.22 997.212 1601.81 995.48 1601.84 993.501C1601.81 991.701 1601.29 990.217 1600.25 989.048C1599.22 987.856 1597.77 986.866 1595.9 986.079C1594.06 985.269 1591.9 984.549 1589.42 983.92L1581.56 981.896C1575.87 980.434 1571.37 978.218 1568.07 975.25C1564.78 972.258 1563.14 968.289 1563.14 963.341C1563.14 959.27 1564.24 955.705 1566.45 952.647C1568.67 949.588 1571.7 947.215 1575.52 945.528C1579.35 943.819 1583.68 942.964 1588.51 942.964C1593.41 942.964 1597.71 943.819 1601.4 945.528C1605.11 947.215 1608.02 949.565 1610.14 952.579C1612.25 955.57 1613.34 959.011 1613.41 962.902H1601.36Z" fill="white"/>
<path d="M1505.06 1013H1491.7L1516.02 943.909H1531.47L1555.83 1013H1542.47L1524.02 958.078H1523.48L1505.06 1013ZM1505.5 985.91H1541.93V995.963H1505.5V985.91Z" fill="white"/>
<path d="M1482.63 943.909V1013H1470.12V943.909H1482.63Z" fill="white"/>
<path d="M1408.33 1013V943.909H1434.24C1439.55 943.909 1444 944.831 1447.6 946.675C1451.22 948.52 1453.95 951.106 1455.79 954.435C1457.66 957.741 1458.59 961.598 1458.59 966.006C1458.59 970.437 1457.65 974.283 1455.76 977.544C1453.89 980.782 1451.14 983.29 1447.5 985.067C1443.85 986.821 1439.38 987.698 1434.07 987.698H1415.62V977.307H1432.38C1435.49 977.307 1438.03 976.88 1440.01 976.026C1441.99 975.148 1443.45 973.878 1444.39 972.213C1445.36 970.527 1445.84 968.457 1445.84 966.006C1445.84 963.555 1445.36 961.463 1444.39 959.731C1443.42 957.977 1441.95 956.65 1439.97 955.75C1437.99 954.828 1435.44 954.367 1432.31 954.367H1420.84V1013H1408.33ZM1444.02 981.693L1461.12 1013H1447.16L1430.36 981.693H1444.02Z" fill="white"/>
<path d="M1342.58 954.401V943.909H1397.7V954.401H1376.35V1013H1363.93V954.401H1342.58Z" fill="white"/>
<path d="M1287.91 1013V943.909H1332.84V954.401H1300.42V973.158H1330.52V983.65H1300.42V1002.51H1333.11V1013H1287.91Z" fill="white"/>
<path d="M1197 944H1217.68H1253.57H1274.25V959.091H1258.77V957.591H1240.82V1012.65H1226.27L1227.27 957.591H1213.26V1013.09H1197V944Z" fill="white"/>
<path d="M1258.77 959.091H1274.27C1274.27 959.091 1264.77 968.591 1264.77 984.591C1264.77 1002.59 1272.27 1000.09 1272.27 1000.09L1274.27 1012.59C1274.27 1012.59 1251.27 1017.09 1251.27 984.591C1251.27 972.091 1258.77 959.091 1258.77 959.091Z" fill="white"/>
</g>
<g clip-path="url(#clip1_19_3)">
<rect width="903" height="289" transform="translate(974 1090)" fill="white"/>
<rect x="974" y="1090" width="903" height="289" fill="#1A2622"/>
<path d="M1208 1287H1228.68H1264.57H1285.25V1302.09H1269.77V1300.59H1251.82V1355.65H1237.27L1238.27 1300.59H1224.26V1356.09H1208V1287Z" fill="white"/>
<path d="M1269.77 1302.09H1285.27C1285.27 1302.09 1275.77 1311.59 1275.77 1327.59C1275.77 1345.59 1283.27 1343.09 1283.27 1343.09L1285.27 1355.59C1285.27 1355.59 1262.27 1360.09 1262.27 1327.59C1262.27 1315.09 1269.77 1302.09 1269.77 1302.09Z" fill="white"/>
<path d="M1612.36 1305.9C1612.05 1302.96 1610.72 1300.66 1608.38 1299.02C1606.07 1297.38 1603.05 1296.56 1599.34 1296.56C1596.73 1296.56 1594.5 1296.95 1592.63 1297.74C1590.76 1298.53 1589.33 1299.59 1588.34 1300.94C1587.36 1302.29 1586.85 1303.83 1586.83 1305.56C1586.83 1307 1587.15 1308.25 1587.8 1309.31C1588.48 1310.37 1589.39 1311.27 1590.54 1312.01C1591.68 1312.73 1592.96 1313.34 1594.35 1313.83C1595.74 1314.33 1597.15 1314.74 1598.57 1315.08L1605.04 1316.7C1607.65 1317.31 1610.16 1318.13 1612.57 1319.16C1615 1320.2 1617.17 1321.5 1619.08 1323.07C1621.01 1324.65 1622.54 1326.55 1623.67 1328.78C1624.79 1331 1625.35 1333.61 1625.35 1336.6C1625.35 1340.65 1624.32 1344.21 1622.25 1347.3C1620.18 1350.35 1617.19 1352.75 1613.28 1354.48C1609.38 1356.19 1604.67 1357.05 1599.14 1357.05C1593.76 1357.05 1589.1 1356.21 1585.14 1354.55C1581.2 1352.89 1578.12 1350.46 1575.9 1347.26C1573.69 1344.07 1572.5 1340.18 1572.32 1335.59H1584.63C1584.81 1338 1585.56 1340 1586.86 1341.59C1588.16 1343.19 1589.86 1344.38 1591.95 1345.17C1594.07 1345.96 1596.43 1346.35 1599.04 1346.35C1601.76 1346.35 1604.14 1345.95 1606.19 1345.14C1608.26 1344.3 1609.88 1343.16 1611.05 1341.7C1612.22 1340.21 1612.81 1338.48 1612.84 1336.5C1612.81 1334.7 1612.29 1333.22 1611.25 1332.05C1610.22 1330.86 1608.77 1329.87 1606.9 1329.08C1605.06 1328.27 1602.9 1327.55 1600.42 1326.92L1592.56 1324.9C1586.87 1323.43 1582.37 1321.22 1579.07 1318.25C1575.78 1315.26 1574.14 1311.29 1574.14 1306.34C1574.14 1302.27 1575.24 1298.71 1577.45 1295.65C1579.67 1292.59 1582.7 1290.22 1586.52 1288.53C1590.35 1286.82 1594.68 1285.96 1599.51 1285.96C1604.41 1285.96 1608.71 1286.82 1612.4 1288.53C1616.11 1290.22 1619.02 1292.57 1621.14 1295.58C1623.25 1298.57 1624.34 1302.01 1624.41 1305.9H1612.36Z" fill="white"/>
<path d="M1516.06 1356H1502.7L1527.02 1286.91H1542.47L1566.83 1356H1553.47L1535.02 1301.08H1534.48L1516.06 1356ZM1516.5 1328.91H1552.93V1338.96H1516.5V1328.91Z" fill="white"/>
<path d="M1493.63 1286.91V1356H1481.12V1286.91H1493.63Z" fill="white"/>
<path d="M1419.33 1356V1286.91H1445.24C1450.55 1286.91 1455 1287.83 1458.6 1289.68C1462.22 1291.52 1464.95 1294.11 1466.79 1297.43C1468.66 1300.74 1469.59 1304.6 1469.59 1309.01C1469.59 1313.44 1468.65 1317.28 1466.76 1320.54C1464.89 1323.78 1462.14 1326.29 1458.5 1328.07C1454.85 1329.82 1450.38 1330.7 1445.07 1330.7H1426.62V1320.31H1443.38C1446.49 1320.31 1449.03 1319.88 1451.01 1319.03C1452.99 1318.15 1454.45 1316.88 1455.39 1315.21C1456.36 1313.53 1456.84 1311.46 1456.84 1309.01C1456.84 1306.55 1456.36 1304.46 1455.39 1302.73C1454.42 1300.98 1452.95 1299.65 1450.97 1298.75C1448.99 1297.83 1446.44 1297.37 1443.31 1297.37H1431.84V1356H1419.33ZM1455.02 1324.69L1472.12 1356H1458.16L1441.36 1324.69H1455.02Z" fill="white"/>
<path d="M1353.58 1297.4V1286.91H1408.7V1297.4H1387.35V1356H1374.93V1297.4H1353.58Z" fill="white"/>
<path d="M1298.91 1356V1286.91H1343.84V1297.4H1311.42V1316.16H1341.52V1326.65H1311.42V1345.51H1344.11V1356H1298.91Z" fill="white"/>
<path d="M1424.22 1231.92C1405.99 1181.43 1432.16 1155.96 1432.16 1155.96H1484.97C1484.97 1155.96 1454.13 1166.61 1459.27 1204.13C1464.41 1241.65 1515.82 1231.92 1515.82 1231.92L1524.08 1267.85C1524.08 1267.85 1442.44 1282.41 1424.22 1231.92Z" fill="#DEAC31"/>
<path d="M1348.06 1152.74H1393.66L1395.21 1269.8H1346.88L1348.06 1152.74Z" fill="#DEAC31"/>
<path d="M1276.94 1153.81H1323.52L1323.99 1270.02H1276L1276.94 1153.81Z" fill="#DEAC31"/>
<path d="M1550.5 1136.48L1542.03 1153.89V1136.57V1120.01L1550.5 1136.48Z" fill="#C89B2B"/>
<rect x="1277.07" y="1118.37" width="259.897" height="35.4405" fill="#DEAC31"/>
<path d="M1285 1125H1460V1145H1285V1125Z" fill="#DEAC31"/>
<path d="M1521.21 1161.33L1610 1135L1521.21 1113L1487.94 1125.56L1458.57 1125V1145L1487.94 1144.41L1521.21 1161.33Z" fill="#DEAC31"/>
<path d="M1432.23 1153.74L1485 1153.74L1485 1156H1432.23V1153.74Z" fill="#DEAC31"/>
</g>
<rect width="903" height="289" transform="translate(23 747)" fill="white"/>
<path d="M254 943H274.68H310.575H331.255V958.091H315.771V956.591H297.823V1011.65H283.271L284.271 956.591H270.261V1012.09H254V943Z" fill="#253780"/>
<path d="M315.771 958.091H331.271C331.271 958.091 321.771 967.591 321.771 983.591C321.771 1001.59 329.271 999.091 329.271 999.091L331.271 1011.59C331.271 1011.59 308.271 1016.09 308.271 983.591C308.271 971.091 315.771 958.091 315.771 958.091Z" fill="#253780"/>
<path d="M473.772 888.567C455.599 838.229 481.693 812.83 481.693 812.83H534.348C534.348 812.83 503.594 823.451 508.72 860.858C513.845 898.265 565.102 888.567 565.102 888.567L573.341 924.384C573.341 924.384 491.945 938.905 473.772 888.567Z" fill="#253780"/>
<path d="M397.844 809.617H443.308L444.852 926.328H396.669L397.844 809.617Z" fill="#253780"/>
<path d="M326.938 810.688H373.378L373.847 926.554H326L326.938 810.688Z" fill="#253780"/>
<path d="M599.674 793.411L591.231 810.767V793.503V776.992L599.674 793.411Z" fill="#C89B2B"/>
<rect x="327.071" y="775.354" width="259.119" height="35.3344" fill="#253780"/>
<path d="M570.48 818.183L659 791.934L570.48 770L537.301 782.527L508.026 781.964V801.904L537.301 801.317L570.48 818.183Z" fill="#253780"/>
<path d="M327.074 789.94H651.024L650.525 794.427L327.074 794.925L327.074 789.94Z" fill="#DEAC31"/>
<path d="M482.756 810.619H533.876L534.374 812.871H481.795L482.756 810.619Z" fill="#253780"/>
<path d="M651.024 789.94L659 791.934L650.525 794.427L651.024 789.94Z" fill="#DEAC31"/>
<path d="M663.411 964.623C663.186 962.149 662.185 960.226 660.408 958.854C658.654 957.46 656.146 956.762 652.885 956.762C650.726 956.762 648.927 957.044 647.487 957.606C646.048 958.168 644.968 958.944 644.249 959.934C643.529 960.901 643.158 962.014 643.135 963.273C643.09 964.308 643.293 965.219 643.743 966.006C644.215 966.793 644.89 967.49 645.767 968.098C646.666 968.682 647.746 969.2 649.005 969.649C650.265 970.099 651.682 970.493 653.256 970.83L659.194 972.18C662.612 972.922 665.626 973.911 668.235 975.148C670.866 976.385 673.07 977.859 674.847 979.568C676.646 981.277 678.007 983.245 678.929 985.472C679.851 987.698 680.323 990.195 680.346 992.961C680.323 997.324 679.221 1001.07 677.04 1004.19C674.858 1007.32 671.721 1009.72 667.627 1011.38C663.557 1013.04 658.643 1013.88 652.885 1013.88C647.105 1013.88 642.067 1013.01 637.771 1011.28C633.476 1009.55 630.136 1006.92 627.752 1003.39C625.368 999.854 624.142 995.39 624.075 989.992H640.065C640.2 992.219 640.796 994.074 641.853 995.559C642.91 997.043 644.361 998.167 646.205 998.932C648.072 999.697 650.231 1000.08 652.683 1000.08C654.932 1000.08 656.843 999.776 658.418 999.168C660.014 998.561 661.24 997.718 662.095 996.638C662.949 995.559 663.388 994.322 663.411 992.927C663.388 991.623 662.983 990.509 662.196 989.587C661.409 988.643 660.194 987.833 658.553 987.158C656.933 986.461 654.864 985.82 652.345 985.235L645.126 983.549C639.143 982.177 634.431 979.961 630.99 976.903C627.549 973.821 625.84 969.661 625.863 964.42C625.84 960.147 626.987 956.403 629.304 953.186C631.62 949.97 634.825 947.463 638.918 945.663C643.012 943.864 647.678 942.964 652.919 942.964C658.271 942.964 662.916 943.875 666.852 945.697C670.81 947.496 673.88 950.027 676.061 953.288C678.243 956.549 679.356 960.327 679.401 964.623H663.411Z" fill="#253780"/>
<path d="M569.853 1013H551.905L575.217 943.909H597.449L620.76 1013H602.813L586.586 961.317H586.046L569.853 1013ZM567.457 985.809H604.972V998.494H567.457V985.809Z" fill="#253780"/>
<path d="M544.424 943.909V1013H527.725V943.909H544.424Z" fill="#253780"/>
<path d="M464.825 1013V943.909H493.365C498.538 943.909 503.002 944.842 506.758 946.709C510.537 948.553 513.449 951.207 515.496 954.671C517.543 958.112 518.566 962.194 518.566 966.917C518.566 971.707 517.52 975.778 515.428 979.129C513.337 982.458 510.368 984.999 506.522 986.754C502.676 988.485 498.122 989.351 492.859 989.351H474.811V976.194H489.756C492.274 976.194 494.377 975.868 496.064 975.216C497.773 974.541 499.067 973.529 499.944 972.18C500.821 970.808 501.259 969.053 501.259 966.917C501.259 964.78 500.821 963.015 499.944 961.62C499.067 960.203 497.773 959.146 496.064 958.449C494.355 957.729 492.252 957.37 489.756 957.37H481.524V1013H464.825ZM503.722 981.423L520.927 1013H502.71L485.842 981.423H503.722Z" fill="#253780"/>
<path d="M398.272 957.471V943.909H456.669V957.471H435.719V1013H419.256V957.471H398.272Z" fill="#253780"/>
<path d="M341.9 1013V943.909H390.075V957.471H358.599V971.64H387.612V985.235H358.599V999.438H390.075V1013H341.9Z" fill="#253780"/>
<rect width="903" height="289" transform="translate(23 1090)" fill="white"/>
<path d="M254 1286H274.68H310.575H331.255V1301.09H315.771V1299.59H297.823V1354.65H283.271L284.271 1299.59H270.261V1355.09H254V1286Z" fill="#253780"/>
<path d="M315.771 1301.09H331.271C331.271 1301.09 321.771 1310.59 321.771 1326.59C321.771 1344.59 329.271 1342.09 329.271 1342.09L331.271 1354.59C331.271 1354.59 308.271 1359.09 308.271 1326.59C308.271 1314.09 315.771 1301.09 315.771 1301.09Z" fill="#253780"/>
<path d="M473.772 1231.57C455.599 1181.23 481.693 1155.83 481.693 1155.83H534.348C534.348 1155.83 503.594 1166.45 508.72 1203.86C513.845 1241.27 565.102 1231.57 565.102 1231.57L573.341 1267.38C573.341 1267.38 491.945 1281.91 473.772 1231.57Z" fill="#253780"/>
<path d="M397.844 1152.62H443.308L444.852 1269.33H396.669L397.844 1152.62Z" fill="#253780"/>
<path d="M326.938 1153.69H373.378L373.847 1269.55H326L326.938 1153.69Z" fill="#253780"/>
<path d="M599.674 1136.41L591.231 1153.77V1136.5V1119.99L599.674 1136.41Z" fill="#253780"/>
<rect x="327.071" y="1118.35" width="259.119" height="35.3344" fill="#253780"/>
<path d="M570.48 1161.18L659 1134.93L570.48 1113L537.301 1125.53L508.026 1124.96V1144.9L537.301 1144.32L570.48 1161.18Z" fill="#253780"/>
<path d="M327.074 1132.94H651.024L650.525 1137.43L327.074 1137.93L327.074 1132.94Z" fill="#253780"/>
<path d="M482.756 1153.62H533.876L534.374 1155.87H481.795L482.756 1153.62Z" fill="#253780"/>
<path d="M651.024 1132.94L659 1134.93L650.525 1137.43L651.024 1132.94Z" fill="#253780"/>
<path d="M663.411 1307.62C663.186 1305.15 662.185 1303.23 660.408 1301.85C658.654 1300.46 656.146 1299.76 652.885 1299.76C650.726 1299.76 648.927 1300.04 647.487 1300.61C646.048 1301.17 644.968 1301.94 644.249 1302.93C643.529 1303.9 643.158 1305.01 643.135 1306.27C643.09 1307.31 643.293 1308.22 643.743 1309.01C644.215 1309.79 644.89 1310.49 645.767 1311.1C646.666 1311.68 647.746 1312.2 649.005 1312.65C650.265 1313.1 651.682 1313.49 653.256 1313.83L659.194 1315.18C662.612 1315.92 665.626 1316.91 668.235 1318.15C670.866 1319.39 673.07 1320.86 674.847 1322.57C676.646 1324.28 678.007 1326.25 678.929 1328.47C679.851 1330.7 680.323 1333.19 680.346 1335.96C680.323 1340.32 679.221 1344.07 677.04 1347.19C674.858 1350.32 671.721 1352.72 667.627 1354.38C663.557 1356.04 658.643 1356.88 652.885 1356.88C647.105 1356.88 642.067 1356.01 637.771 1354.28C633.476 1352.55 630.136 1349.92 627.752 1346.39C625.368 1342.85 624.142 1338.39 624.075 1332.99H640.065C640.2 1335.22 640.796 1337.07 641.853 1338.56C642.91 1340.04 644.361 1341.17 646.205 1341.93C648.072 1342.7 650.231 1343.08 652.683 1343.08C654.932 1343.08 656.843 1342.78 658.418 1342.17C660.014 1341.56 661.24 1340.72 662.095 1339.64C662.949 1338.56 663.388 1337.32 663.411 1335.93C663.388 1334.62 662.983 1333.51 662.196 1332.59C661.409 1331.64 660.194 1330.83 658.553 1330.16C656.933 1329.46 654.864 1328.82 652.345 1328.24L645.126 1326.55C639.143 1325.18 634.431 1322.96 630.99 1319.9C627.549 1316.82 625.84 1312.66 625.863 1307.42C625.84 1303.15 626.987 1299.4 629.304 1296.19C631.62 1292.97 634.825 1290.46 638.918 1288.66C643.012 1286.86 647.678 1285.96 652.919 1285.96C658.271 1285.96 662.916 1286.88 666.852 1288.7C670.81 1290.5 673.88 1293.03 676.061 1296.29C678.243 1299.55 679.356 1303.33 679.401 1307.62H663.411Z" fill="#253780"/>
<path d="M569.853 1356H551.905L575.217 1286.91H597.449L620.76 1356H602.813L586.586 1304.32H586.046L569.853 1356ZM567.457 1328.81H604.972V1341.49H567.457V1328.81Z" fill="#253780"/>
<path d="M544.424 1286.91V1356H527.725V1286.91H544.424Z" fill="#253780"/>
<path d="M464.825 1356V1286.91H493.365C498.538 1286.91 503.002 1287.84 506.758 1289.71C510.537 1291.55 513.449 1294.21 515.496 1297.67C517.543 1301.11 518.566 1305.19 518.566 1309.92C518.566 1314.71 517.52 1318.78 515.428 1322.13C513.337 1325.46 510.368 1328 506.522 1329.75C502.676 1331.49 498.122 1332.35 492.859 1332.35H474.811V1319.19H489.756C492.274 1319.19 494.377 1318.87 496.064 1318.22C497.773 1317.54 499.067 1316.53 499.944 1315.18C500.821 1313.81 501.259 1312.05 501.259 1309.92C501.259 1307.78 500.821 1306.01 499.944 1304.62C499.067 1303.2 497.773 1302.15 496.064 1301.45C494.355 1300.73 492.252 1300.37 489.756 1300.37H481.524V1356H464.825ZM503.722 1324.42L520.927 1356H502.71L485.842 1324.42H503.722Z" fill="#253780"/>
<path d="M398.272 1300.47V1286.91H456.669V1300.47H435.719V1356H419.256V1300.47H398.272Z" fill="#253780"/>
<path d="M341.9 1356V1286.91H390.075V1300.47H358.599V1314.64H387.612V1328.24H358.599V1342.44H390.075V1356H341.9Z" fill="#253780"/>
<rect width="903" height="289" transform="translate(23 70)" fill="white"/>
<path d="M487.491 272.891C461.605 201.188 498.774 165.008 498.774 165.008H573.777C573.777 165.008 529.97 180.138 537.271 233.421C544.572 286.705 617.584 272.891 617.584 272.891L629.32 323.909C629.32 323.909 513.376 344.594 487.491 272.891Z" fill="#253780"/>
<path d="M379.337 160.432H444.098L446.296 326.678H377.663L379.337 160.432Z" fill="#253780"/>
<path d="M278.336 161.957H344.487L345.155 327H277L278.336 161.957Z" fill="#253780"/>
<path d="M666.83 137.347L654.803 162.07V137.478V113.96L666.83 137.347Z" fill="#C89B2B"/>
<rect x="278.525" y="111.626" width="369.097" height="50.3313" fill="#253780"/>
<path d="M625.244 172.634L751.335 135.244L625.244 104L577.984 121.844L536.283 121.042V149.445L577.984 148.609L625.244 172.634Z" fill="#253780"/>
<path d="M278.529 132.403H739.974L739.264 138.794L278.529 139.504L278.529 132.403Z" fill="#DEAC31"/>
<path d="M500.287 161.858H573.104L573.814 165.067H498.919L500.287 161.858Z" fill="#253780"/>
<path d="M739.974 132.403L751.335 135.244L739.264 138.794L739.974 132.403Z" fill="#DEAC31"/>
<rect width="903" height="289" transform="translate(23 413)" fill="white"/>
<path d="M237.422 601.113C217.94 547.147 245.915 519.916 245.915 519.916H302.364C302.364 519.916 269.393 531.304 274.889 571.407C280.384 611.51 335.334 601.113 335.334 601.113L344.167 639.511C344.167 639.511 256.905 655.079 237.422 601.113Z" fill="#253780"/>
<path d="M156.022 516.473H204.763L206.418 641.595H154.762L156.022 516.473Z" fill="#253780"/>
<path d="M80.0058 517.621H129.793L130.296 641.837H79L80.0058 517.621Z" fill="#253780"/>
<path d="M372.399 499.098L363.346 517.705V499.197V481.496L372.399 499.098Z" fill="#C89B2B"/>
<rect x="80.1479" y="479.74" width="277.794" height="37.881" fill="#253780"/>
<path d="M341.1 525.656L436 497.515L341.1 474L305.53 487.43L274.145 486.826V508.204L305.53 507.574L341.1 525.656Z" fill="#253780"/>
<path d="M80.1509 495.377H427.449L426.915 500.187L80.1509 500.722L80.1509 495.377Z" fill="#DEAC31"/>
<path d="M247.053 517.546H301.858L302.392 519.961H246.024L247.053 517.546Z" fill="#253780"/>
<path d="M427.449 495.377L436 497.515L426.915 500.187L427.449 495.377Z" fill="#DEAC31"/>
<path d="M857.677 566.256C857.332 562.458 855.795 559.505 853.067 557.398C850.373 555.257 846.523 554.187 841.515 554.187C838.2 554.187 835.437 554.618 833.227 555.482C831.017 556.345 829.359 557.536 828.254 559.056C827.149 560.541 826.579 562.25 826.545 564.184C826.476 565.773 826.787 567.171 827.477 568.38C828.203 569.589 829.239 570.659 830.585 571.592C831.967 572.49 833.624 573.284 835.558 573.975C837.492 574.665 839.668 575.27 842.085 575.788L851.202 577.86C856.451 578.999 861.079 580.519 865.085 582.418C869.125 584.318 872.51 586.58 875.238 589.204C878.001 591.829 880.09 594.851 881.506 598.269C882.922 601.688 883.647 605.522 883.682 609.769C883.647 616.469 881.955 622.219 878.605 627.019C875.255 631.819 870.438 635.497 864.153 638.053C857.902 640.608 850.356 641.886 841.515 641.886C832.64 641.886 824.905 640.556 818.309 637.897C811.713 635.238 806.584 631.198 802.924 625.776C799.263 620.354 797.381 613.499 797.277 605.211H821.831C822.038 608.63 822.953 611.479 824.577 613.758C826.2 616.037 828.427 617.764 831.259 618.938C834.125 620.112 837.44 620.699 841.205 620.699C844.658 620.699 847.593 620.233 850.011 619.301C852.463 618.368 854.345 617.073 855.657 615.416C856.969 613.758 857.643 611.859 857.677 609.717C857.643 607.714 857.021 606.005 855.813 604.589C854.604 603.139 852.739 601.895 850.218 600.859C847.732 599.789 844.554 598.805 840.687 597.907L829.601 595.317C820.415 593.21 813.18 589.809 807.897 585.112C802.613 580.381 799.988 573.992 800.023 565.946C799.988 559.384 801.749 553.634 805.306 548.696C808.864 543.757 813.785 539.907 820.07 537.144C826.355 534.381 833.521 533 841.567 533C849.786 533 856.918 534.399 862.961 537.196C869.039 539.959 873.753 543.844 877.103 548.851C880.453 553.859 882.162 559.66 882.231 566.256H857.677Z" fill="#253780"/>
<path d="M714.02 640.539H686.462L722.256 534.451H756.393L792.188 640.539H764.63L739.713 561.18H738.885L714.02 640.539ZM710.342 598.787H767.945V618.265H710.342V598.787Z" fill="#253780"/>
<path d="M674.975 534.451V640.539H649.333V534.451H674.975Z" fill="#253780"/>
<path d="M552.75 640.539V534.451H596.574C604.517 534.451 611.372 535.884 617.139 538.75C622.941 541.582 627.413 545.657 630.556 550.975C633.698 556.259 635.27 562.527 635.27 569.779C635.27 577.135 633.664 583.385 630.452 588.531C627.24 593.642 622.682 597.544 616.777 600.238C610.871 602.897 603.878 604.227 595.797 604.227H568.083V584.024H591.031C594.899 584.024 598.128 583.523 600.718 582.522C603.343 581.486 605.328 579.932 606.675 577.86C608.022 575.753 608.696 573.06 608.696 569.779C608.696 566.498 608.022 563.787 606.675 561.646C605.328 559.47 603.343 557.847 600.718 556.777C598.094 555.672 594.865 555.119 591.031 555.119H578.392V640.539H552.75ZM612.477 592.053L638.896 640.539H610.923L585.022 592.053H612.477Z" fill="#253780"/>
<path d="M450.56 555.275V534.451H540.227V555.275H508.059V640.539H482.78V555.275H450.56Z" fill="#253780"/>
<path d="M364 640.539V534.451H437.972V555.275H389.642V577.031H434.191V597.907H389.642V619.715H437.972V640.539H364Z" fill="#253780"/>
<rect width="903" height="289" transform="translate(966 413)" fill="white"/>
<path d="M1180.42 601.113C1160.94 547.147 1188.91 519.916 1188.91 519.916H1245.36C1245.36 519.916 1212.39 531.304 1217.89 571.407C1223.38 611.51 1278.33 601.113 1278.33 601.113L1287.17 639.511C1287.17 639.511 1199.9 655.079 1180.42 601.113Z" fill="#253780"/>
<path d="M1099.02 516.473H1147.76L1149.42 641.595H1097.76L1099.02 516.473Z" fill="#253780"/>
<path d="M1023.01 517.621H1072.79L1073.3 641.837H1022L1023.01 517.621Z" fill="#253780"/>
<path d="M1315.4 499.098L1306.35 517.705V499.197V481.496L1315.4 499.098Z" fill="#253780"/>
<rect x="1023.15" y="479.74" width="277.794" height="37.881" fill="#253780"/>
<path d="M1284.1 525.656L1379 497.515L1284.1 474L1248.53 487.43L1217.14 486.826V508.204L1248.53 507.574L1284.1 525.656Z" fill="#253780"/>
<path d="M1023.15 495.377H1370.45L1369.91 500.187L1023.15 500.722L1023.15 495.377Z" fill="#253780"/>
<path d="M1190.05 517.546H1244.86L1245.39 519.961H1189.02L1190.05 517.546Z" fill="#253780"/>
<path d="M1370.45 495.377L1379 497.515L1369.91 500.187L1370.45 495.377Z" fill="#253780"/>
<path d="M1800.68 566.256C1800.33 562.458 1798.8 559.505 1796.07 557.398C1793.37 555.257 1789.52 554.187 1784.52 554.187C1781.2 554.187 1778.44 554.618 1776.23 555.482C1774.02 556.345 1772.36 557.536 1771.25 559.056C1770.15 560.541 1769.58 562.25 1769.54 564.184C1769.48 565.773 1769.79 567.171 1770.48 568.38C1771.2 569.589 1772.24 570.659 1773.59 571.592C1774.97 572.49 1776.62 573.284 1778.56 573.975C1780.49 574.665 1782.67 575.27 1785.09 575.788L1794.2 577.86C1799.45 578.999 1804.08 580.519 1808.08 582.418C1812.13 584.318 1815.51 586.58 1818.24 589.204C1821 591.829 1823.09 594.851 1824.51 598.269C1825.92 601.688 1826.65 605.522 1826.68 609.769C1826.65 616.469 1824.95 622.219 1821.61 627.019C1818.26 631.819 1813.44 635.497 1807.15 638.053C1800.9 640.608 1793.36 641.886 1784.52 641.886C1775.64 641.886 1767.9 640.556 1761.31 637.897C1754.71 635.238 1749.58 631.198 1745.92 625.776C1742.26 620.354 1740.38 613.499 1740.28 605.211H1764.83C1765.04 608.63 1765.95 611.479 1767.58 613.758C1769.2 616.037 1771.43 617.764 1774.26 618.938C1777.13 620.112 1780.44 620.699 1784.2 620.699C1787.66 620.699 1790.59 620.233 1793.01 619.301C1795.46 618.368 1797.34 617.073 1798.66 615.416C1799.97 613.758 1800.64 611.859 1800.68 609.717C1800.64 607.714 1800.02 606.005 1798.81 604.589C1797.6 603.139 1795.74 601.895 1793.22 600.859C1790.73 599.789 1787.55 598.805 1783.69 597.907L1772.6 595.317C1763.42 593.21 1756.18 589.809 1750.9 585.112C1745.61 580.381 1742.99 573.992 1743.02 565.946C1742.99 559.384 1744.75 553.634 1748.31 548.696C1751.86 543.757 1756.78 539.907 1763.07 537.144C1769.36 534.381 1776.52 533 1784.57 533C1792.79 533 1799.92 534.399 1805.96 537.196C1812.04 539.959 1816.75 543.844 1820.1 548.851C1823.45 553.859 1825.16 559.66 1825.23 566.256H1800.68Z" fill="#253780"/>
<path d="M1657.02 640.539H1629.46L1665.26 534.451H1699.39L1735.19 640.539H1707.63L1682.71 561.18H1681.88L1657.02 640.539ZM1653.34 598.787H1710.95V618.265H1653.34V598.787Z" fill="#253780"/>
<path d="M1617.98 534.451V640.539H1592.33V534.451H1617.98Z" fill="#253780"/>
<path d="M1495.75 640.539V534.451H1539.57C1547.52 534.451 1554.37 535.884 1560.14 538.75C1565.94 541.582 1570.41 545.657 1573.56 550.975C1576.7 556.259 1578.27 562.527 1578.27 569.779C1578.27 577.135 1576.66 583.385 1573.45 588.531C1570.24 593.642 1565.68 597.544 1559.78 600.238C1553.87 602.897 1546.88 604.227 1538.8 604.227H1511.08V584.024H1534.03C1537.9 584.024 1541.13 583.523 1543.72 582.522C1546.34 581.486 1548.33 579.932 1549.68 577.86C1551.02 575.753 1551.7 573.06 1551.7 569.779C1551.7 566.498 1551.02 563.787 1549.68 561.646C1548.33 559.47 1546.34 557.847 1543.72 556.777C1541.09 555.672 1537.86 555.119 1534.03 555.119H1521.39V640.539H1495.75ZM1555.48 592.053L1581.9 640.539H1553.92L1528.02 592.053H1555.48Z" fill="#253780"/>
<path d="M1393.56 555.275V534.451H1483.23V555.275H1451.06V640.539H1425.78V555.275H1393.56Z" fill="#253780"/>
<path d="M1307 640.539V534.451H1380.97V555.275H1332.64V577.031H1377.19V597.907H1332.64V619.715H1380.97V640.539H1307Z" fill="#253780"/>
<rect width="903" height="289" transform="translate(962 70)" fill="white"/>
<rect x="1269" y="78" width="289" height="274" fill="#1A1D26"/>
<rect x="972" y="78" width="289" height="274" fill="#D9D9D9"/>
<rect x="1574" y="78" width="282" height="274" fill="#1A2622"/>
<path d="M1120.56 238.464C1109.3 207.275 1125.47 191.537 1125.47 191.537H1158.09C1158.09 191.537 1139.04 198.118 1142.21 221.295C1145.39 244.473 1177.15 238.464 1177.15 238.464L1182.25 260.656C1182.25 260.656 1131.82 269.653 1120.56 238.464Z" fill="#253780"/>
<path d="M1073.51 189.547H1101.68L1102.64 261.86H1072.79L1073.51 189.547Z" fill="#253780"/>
<path d="M1029.58 190.21H1058.36L1058.65 262H1029L1029.58 190.21Z" fill="#253780"/>
<path d="M1198.57 179.505L1193.34 190.259V179.562V169.332L1198.57 179.505Z" fill="#C89B2B"/>
<rect x="1029.66" y="168.317" width="160.549" height="21.893" fill="#253780"/>
<path d="M1034.56 172.413H1142.66V184.768H1034.56V172.413Z" fill="#253780"/>
<path d="M1180.48 194.854L1235.33 178.59L1180.48 165L1159.92 172.762L1141.78 172.413V184.768L1159.92 184.404L1180.48 194.854Z" fill="#253780"/>
<path d="M1125.51 190.167L1158.11 190.167L1158.11 191.563H1125.51V190.167Z" fill="#253780"/>
<path d="M1729.73 239.192C1718.82 208.967 1734.48 193.716 1734.48 193.716H1766.1C1766.1 193.716 1747.63 200.094 1750.71 222.554C1753.79 245.015 1784.56 239.192 1784.56 239.192L1789.51 260.697C1789.51 260.697 1740.64 269.416 1729.73 239.192Z" fill="#DEAC31"/>
<path d="M1684.14 191.788H1711.44L1712.36 261.864H1683.43L1684.14 191.788Z" fill="#DEAC31"/>
<path d="M1641.56 192.43H1669.45L1669.73 262H1641L1641.56 192.43Z" fill="#DEAC31"/>
<path d="M1805.32 182.056L1800.25 192.478V182.112V172.198L1805.32 182.056Z" fill="#C89B2B"/>
<rect x="1641.64" y="171.215" width="155.583" height="21.2159" fill="#DEAC31"/>
<path d="M1646.39 175.184H1751.15V187.156H1646.39V175.184Z" fill="#DEAC31"/>
<path d="M1787.79 196.931L1840.94 181.17L1787.79 168L1767.87 175.521L1750.29 175.184V187.156L1767.87 186.804L1787.79 196.931Z" fill="#DEAC31"/>
<path d="M1734.52 192.389L1766.11 192.389L1766.11 193.741H1734.52V192.389Z" fill="#DEAC31"/>
<path d="M1426.73 236.192C1415.82 205.967 1431.48 190.716 1431.48 190.716H1463.1C1463.1 190.716 1444.63 197.094 1447.71 219.554C1450.79 242.015 1481.56 236.192 1481.56 236.192L1486.51 257.697C1486.51 257.697 1437.64 266.416 1426.73 236.192Z" fill="white"/>
<path d="M1381.14 188.788H1408.44L1409.36 258.864H1380.43L1381.14 188.788Z" fill="white"/>
<path d="M1338.56 189.43H1366.45L1366.73 259H1338L1338.56 189.43Z" fill="white"/>
<path d="M1502.32 179.056L1497.25 189.478V179.112V169.198L1502.32 179.056Z" fill="white"/>
<rect x="1338.64" y="168.215" width="155.583" height="21.2159" fill="white"/>
<path d="M1343.39 172.184H1448.15V184.156H1343.39V172.184Z" fill="white"/>
<path d="M1484.79 193.931L1537.94 178.17L1484.79 165L1464.87 172.521L1447.29 172.184V184.156L1464.87 183.804L1484.79 193.931Z" fill="white"/>
<path d="M1431.52 189.389L1463.11 189.389L1463.11 190.741H1431.52V189.389Z" fill="white"/>
<defs>
<clipPath id="clip0_19_3">
<rect width="903" height="289" fill="white" transform="translate(974 747)"/>
</clipPath>
<clipPath id="clip1_19_3">
<rect width="903" height="289" fill="white" transform="translate(974 1090)"/>
</clipPath>
</defs>
</svg>
